<?xml version="1.0" standalone="no"?>
<!DOCTYPE svg PUBLIC "-//W3C//DTD SVG 20010904//EN"
 "http://www.w3.org/TR/2001/REC-SVG-20010904/DTD/svg10.dtd">
<svg version="1.0" xmlns="http://www.w3.org/2000/svg"
 width="125px" height="96px" viewBox="0 0 1697.000000 1776.000000"
 preserveAspectRatio="xMidYMid meet">

<g transform="translate(0.000000,1776.000000) scale(0.100000,-0.100000)"
fill="#000000" stroke="none">
<path d="M6640 17178 c-14 -5 -68 -16 -120 -24 -83 -12 -112 -22 -225 -79 -71
-36 -138 -65 -148 -65 -23 0 -99 -70 -137 -128 -43 -64 -73 -166 -65 -219 9
-65 60 -157 108 -195 23 -19 74 -56 112 -82 39 -26 89 -62 112 -81 57 -45 182
-85 297 -95 52 -4 109 -15 127 -23 19 -8 53 -17 77 -20 26 -3 56 -16 78 -34
19 -15 78 -62 131 -103 71 -55 103 -87 119 -120 33 -66 62 -198 75 -345 6 -71
15 -137 20 -146 12 -23 -31 -109 -82 -164 -23 -25 -71 -66 -108 -92 -36 -25
-92 -69 -125 -96 -46 -40 -69 -52 -109 -58 -27 -5 -68 -21 -91 -36 -42 -28
-64 -32 -253 -49 -120 -10 -180 6 -373 102 -159 79 -239 136 -255 183 -3 9
-20 25 -37 36 -61 38 -86 91 -109 231 -14 80 -2 230 27 347 8 32 14 71 14 86
0 15 5 32 12 39 9 9 2 12 -35 12 -36 0 -49 -4 -57 -20 -6 -11 -26 -26 -45 -34
-40 -17 -57 -47 -85 -151 -11 -43 -28 -91 -36 -108 -11 -20 -14 -43 -10 -71 3
-22 10 -84 15 -137 12 -121 25 -171 56 -207 14 -16 33 -49 44 -74 21 -50 109
-135 185 -179 100 -57 545 -177 616 -165 19 3 78 11 130 16 116 13 169 26 195
50 11 9 44 20 73 23 57 7 119 37 239 120 183 125 343 357 343 498 0 21 5 50
10 65 6 16 7 31 1 38 -4 6 -12 33 -16 61 -10 74 -41 148 -75 180 -22 21 -33
44 -41 89 -11 58 -16 65 -89 136 -43 41 -94 96 -114 121 -31 40 -42 47 -70 46
-21 -1 -51 10 -82 30 -61 39 -131 57 -189 49 -29 -3 -57 -1 -78 8 -59 25 -162
45 -199 39 -28 -4 -46 0 -75 17 -79 47 -173 124 -203 167 -31 43 -32 45 -19
95 17 74 108 188 220 277 49 40 104 77 122 82 18 6 95 13 172 16 132 5 143 4
185 -17 83 -42 176 -107 243 -170 66 -61 169 -202 196 -267 11 -28 19 -33 47
-33 27 0 34 4 34 20 0 34 -35 114 -79 178 -30 44 -40 69 -36 83 11 34 -37 84
-118 123 -85 40 -180 110 -220 160 -15 20 -37 36 -48 36 -11 0 -37 9 -59 20
-43 22 -81 24 -120 8z"/>
<path d="M8010 16876 c-90 -37 -135 -63 -187 -105 -52 -44 -52 -43 -121 -117
-101 -107 -243 -455 -262 -643 -5 -47 -15 -131 -22 -186 -16 -132 -16 -454 1
-520 56 -213 62 -230 100 -275 91 -109 189 -154 326 -152 106 1 195 30 289 93
117 78 233 220 254 312 6 23 23 71 38 107 15 36 30 90 34 120 4 30 12 67 18
82 6 14 16 55 21 90 6 34 16 89 22 120 9 45 9 61 -1 73 -10 12 -11 43 -4 138
18 245 6 431 -31 517 -14 30 -29 74 -35 97 -6 25 -22 51 -39 66 -16 13 -40 42
-54 65 -35 55 -78 85 -165 116 -89 32 -111 32 -182 2z m136 -121 c26 -14 53
-25 61 -25 26 0 91 -49 97 -73 3 -13 22 -36 41 -51 32 -25 35 -31 35 -80 0
-29 10 -90 21 -136 18 -71 20 -91 10 -134 -5 -28 -12 -136 -15 -241 -3 -143
-8 -199 -20 -227 -9 -21 -16 -51 -16 -68 0 -17 -7 -44 -15 -60 -9 -18 -13 -40
-9 -55 4 -17 1 -32 -9 -43 -27 -31 -45 -77 -71 -180 -34 -142 -68 -212 -99
-212 -13 0 -42 -13 -63 -30 -21 -16 -57 -43 -78 -60 -34 -26 -47 -30 -102 -30
-52 0 -74 6 -133 36 -80 41 -112 76 -163 179 -29 59 -36 86 -41 161 -4 50 -12
115 -18 144 -9 43 -8 63 4 109 9 31 26 126 37 211 12 85 26 162 31 172 5 9 18
78 29 152 20 133 21 136 86 253 108 192 153 244 249 289 64 30 93 30 151 -1z"/>
<path d="M8845 16768 c-28 -76 -79 -235 -89 -283 -8 -33 -39 -129 -70 -214
-32 -84 -62 -179 -67 -210 -5 -31 -14 -75 -19 -99 -6 -23 -10 -53 -10 -65 0
-28 -56 -252 -69 -276 -5 -9 -16 -54 -25 -99 -9 -46 -20 -91 -26 -102 -13 -24
-13 -67 0 -75 6 -3 10 -28 10 -54 0 -64 14 -133 41 -206 18 -49 38 -77 108
-146 94 -94 121 -111 258 -158 82 -28 103 -31 210 -31 l118 0 117 113 c99 95
119 119 128 157 7 24 24 69 40 100 15 30 31 71 35 90 4 19 22 80 40 135 18 55
38 138 45 185 6 47 25 126 42 175 16 50 32 122 35 160 3 39 17 104 31 145 24
69 26 91 30 278 l4 203 -27 39 -27 39 -32 -21 c-32 -21 -32 -21 -33 -112 0
-50 -5 -122 -11 -161 -6 -38 -17 -115 -26 -170 -12 -84 -93 -483 -125 -620
-10 -41 -132 -269 -207 -387 -31 -48 -59 -77 -98 -102 -102 -65 -131 -76 -201
-76 l-67 0 -76 66 c-102 89 -124 124 -173 273 -35 106 -41 139 -42 211 0 81 2
91 45 185 89 195 138 382 138 526 0 49 8 93 30 157 17 50 30 107 30 129 0 21
8 55 19 76 22 43 34 147 23 197 -6 26 -14 36 -30 38 -12 2 -24 -3 -27 -10z"/>
<path d="M9930 16474 c-16 -42 -13 -50 63 -120 92 -85 122 -104 172 -104 22 0
57 -9 78 -20 23 -12 56 -20 88 -20 63 0 93 -14 80 -38 -4 -9 -11 -53 -14 -97
-4 -57 -13 -97 -32 -138 -15 -31 -30 -83 -35 -116 -6 -41 -22 -82 -54 -137
-25 -43 -48 -92 -52 -109 -4 -16 -27 -50 -53 -75 -55 -54 -147 -196 -195 -300
-19 -42 -41 -115 -51 -165 -20 -111 -68 -301 -94 -376 -29 -85 -44 -167 -36
-205 5 -27 11 -34 30 -34 33 0 85 72 85 118 0 42 55 198 120 342 26 58 52 127
59 154 7 27 23 71 37 98 14 27 39 89 56 136 36 104 67 167 121 246 58 85 102
188 137 316 44 163 84 252 139 311 l46 49 63 -20 c35 -11 91 -20 125 -20 52 0
75 -7 152 -44 49 -24 107 -57 127 -74 73 -57 128 -66 128 -19 0 30 -33 60
-148 133 -51 32 -112 71 -136 86 -67 43 -304 102 -398 99 -82 -2 -96 -1 -173
7 -95 10 -228 68 -287 126 -33 32 -43 36 -88 36 -45 0 -52 -3 -60 -26z"/>
<path d="M11420 15951 c-94 -15 -111 -20 -158 -54 -62 -46 -143 -135 -180
-196 -32 -54 -132 -297 -132 -320 0 -9 -6 -26 -14 -37 -15 -20 -15 -20 -83 -3
-75 20 -188 25 -198 9 -4 -6 7 -24 25 -40 28 -26 81 -48 153 -64 33 -8 33 -14
5 -53 -13 -17 -44 -59 -70 -94 -98 -132 -282 -397 -331 -479 -29 -47 -85 -134
-126 -195 -216 -318 -223 -332 -183 -368 27 -25 37 -22 100 28 31 24 77 59
101 77 25 18 57 53 71 78 15 25 73 119 129 210 81 131 108 184 132 261 16 53
43 118 60 144 37 58 177 199 242 244 l47 32 58 -26 c127 -58 421 -253 481
-318 l24 -26 -34 -18 c-51 -27 -149 -136 -223 -248 -25 -38 -65 -94 -89 -123
-103 -125 -199 -330 -313 -667 l-55 -160 33 -27 c30 -26 33 -27 50 -11 10 9
23 33 28 54 6 20 27 63 48 96 67 101 132 217 138 243 15 66 37 121 71 170 20
30 72 123 116 205 110 206 137 245 249 360 l98 100 25 -31 c17 -21 40 -35 71
-43 43 -11 49 -10 68 8 l20 21 -56 57 -57 58 62 66 c34 37 87 86 117 109 30
24 100 90 155 147 75 77 106 103 125 103 18 0 48 22 106 80 82 80 232 185 311
217 24 10 43 21 43 24 0 13 -81 39 -120 39 -50 0 -105 -22 -205 -82 -81 -49
-208 -149 -254 -202 -15 -15 -60 -65 -101 -110 -42 -44 -93 -103 -114 -129
-35 -42 -187 -177 -201 -177 -3 0 -47 29 -98 64 -107 73 -251 161 -390 235
-53 29 -97 59 -97 66 0 7 14 39 31 71 17 33 45 97 61 144 37 105 78 188 130
261 42 60 74 89 176 158 34 23 62 46 62 51 0 23 -40 26 -140 11z"/>
<path d="M5178 15401 c-25 -10 -59 -27 -75 -38 -15 -11 -71 -42 -123 -68 -52
-26 -131 -71 -175 -100 -44 -30 -93 -57 -110 -61 -16 -4 -44 -18 -61 -31 -17
-12 -36 -23 -42 -23 -16 0 -511 -330 -612 -408 -47 -36 -129 -104 -183 -149
-54 -46 -144 -114 -199 -150 -108 -72 -409 -349 -575 -529 -267 -290 -534
-640 -690 -904 -173 -292 -197 -337 -237 -447 -24 -65 -62 -158 -84 -208 -22
-49 -54 -127 -71 -172 -16 -45 -41 -104 -55 -130 -13 -27 -32 -76 -41 -108
-10 -33 -28 -82 -40 -110 -27 -58 -80 -214 -101 -300 -9 -33 -25 -87 -36 -120
-11 -33 -32 -114 -48 -180 -15 -66 -39 -159 -53 -206 -39 -134 -86 -429 -129
-804 -20 -176 -11 -889 12 -920 8 -11 16 -79 30 -240 13 -150 28 -247 60 -386
17 -70 30 -138 30 -152 0 -13 6 -40 14 -58 8 -19 21 -81 30 -139 15 -103 65
-298 111 -435 12 -38 35 -118 49 -176 14 -58 42 -144 61 -191 18 -47 50 -136
70 -199 44 -138 141 -354 322 -716 l135 -271 -36 -48 c-93 -122 -196 -432
-196 -593 0 -83 20 -130 90 -207 21 -23 41 -51 45 -64 9 -27 117 -201 158
-255 18 -22 65 -76 107 -121 41 -45 101 -110 132 -145 31 -35 71 -79 87 -98
40 -45 46 -78 45 -256 -1 -169 -15 -273 -51 -390 -33 -105 -127 -302 -160
-337 -57 -60 -141 -62 -360 -9 -89 22 -187 43 -217 46 -51 7 -60 12 -128 79
-208 202 -271 374 -285 771 -6 199 7 330 44 415 23 55 62 193 57 202 -3 4 -19
8 -35 8 -24 0 -35 -8 -59 -47 -17 -26 -30 -51 -30 -56 0 -5 -13 -37 -30 -71
-16 -35 -44 -128 -62 -207 -32 -141 -32 -149 -32 -379 0 -232 1 -237 31 -345
45 -161 88 -266 129 -313 50 -59 280 -229 334 -247 70 -24 294 -31 349 -11 54
20 80 20 119 1 27 -14 37 -14 97 1 88 22 119 45 181 133 29 41 82 104 116 140
79 81 118 138 148 216 13 33 38 91 57 128 37 75 55 139 73 267 12 79 11 90
-10 160 -45 152 -83 215 -199 329 -58 56 -149 137 -201 179 -150 119 -219 189
-226 229 -4 22 -26 55 -59 91 -70 76 -97 132 -103 212 -6 82 15 165 65 262 21
40 45 93 54 117 22 63 51 81 150 93 102 12 187 4 265 -23 33 -11 86 -22 119
-26 69 -7 114 -34 137 -85 23 -48 41 -211 42 -383 1 -82 5 -163 9 -180 7 -27
4 -32 -26 -52 -18 -13 -43 -32 -56 -44 l-22 -21 21 -23 22 -23 50 21 c28 11
60 34 74 53 47 61 114 197 114 230 0 18 5 36 10 39 19 12 10 86 -25 185 -19
56 -39 129 -45 163 -14 74 -39 125 -89 180 -21 23 -50 58 -65 78 -15 20 -39
42 -54 48 -34 13 -199 31 -289 31 -37 0 -111 9 -163 20 -52 11 -102 17 -111
15 -21 -7 -46 30 -114 166 -32 63 -64 122 -72 131 -9 10 -30 52 -48 95 -18 43
-62 150 -99 238 -37 88 -76 197 -87 243 -10 46 -34 120 -53 165 -76 185 -127
351 -142 460 -8 65 -24 132 -40 169 -14 34 -36 116 -49 183 -13 66 -31 152
-40 190 -9 39 -21 102 -26 140 -22 161 -72 436 -93 515 -9 31 -15 69 -15 85 0
17 -3 53 -7 80 -29 220 -43 718 -25 920 11 127 33 296 51 405 6 30 14 96 20
145 18 150 178 674 215 701 9 7 55 24 103 40 122 39 146 52 242 139 99 89 160
128 193 123 16 -2 56 -40 120 -113 129 -147 129 -154 15 -260 -68 -62 -93 -79
-139 -92 -47 -13 -59 -21 -75 -51 -31 -59 -110 -127 -190 -167 -86 -43 -117
-84 -97 -128 10 -21 3 -33 -68 -118 -69 -81 -83 -105 -107 -178 -15 -46 -34
-88 -43 -94 -14 -9 -15 -16 -1 -68 14 -55 13 -59 -7 -88 -37 -52 -70 -174 -71
-261 0 -78 20 -227 40 -294 67 -221 229 -512 365 -656 34 -36 71 -83 84 -104
53 -93 156 -189 264 -246 l46 -24 5 -91 c15 -273 49 -388 147 -490 34 -36 62
-76 69 -100 20 -65 40 -96 96 -155 61 -65 84 -111 84 -173 0 -70 29 -257 50
-322 10 -33 24 -80 30 -105 43 -174 294 -610 444 -770 29 -30 81 -93 116 -140
71 -95 499 -533 630 -644 155 -133 409 -303 723 -486 74 -43 109 -69 113 -85
3 -12 -2 -73 -10 -136 -9 -62 -16 -129 -16 -149 0 -19 -6 -64 -14 -100 -8 -36
-19 -100 -24 -142 -9 -73 -17 -91 -140 -315 -71 -131 -160 -288 -196 -349
l-67 -111 -113 -5 c-89 -4 -122 -10 -152 -26 -75 -39 -99 -50 -141 -61 -30 -8
-64 -32 -120 -85 -66 -62 -76 -76 -65 -89 24 -28 70 -41 110 -29 20 5 73 20
117 32 44 13 88 22 98 22 9 -1 25 -1 35 -1 54 1 85 0 89 -4 2 -3 -24 -60 -58
-128 -33 -68 -78 -163 -100 -211 -39 -92 -156 -254 -316 -438 -40 -47 -132
-161 -203 -255 -72 -93 -162 -212 -202 -263 -80 -104 -82 -124 -15 -130 35 -3
44 4 189 145 85 81 194 183 243 226 93 81 205 200 280 297 114 148 352 560
401 695 22 62 47 85 92 85 46 0 109 -45 234 -166 70 -68 131 -124 137 -124 16
0 33 -67 23 -87 -14 -26 -22 -238 -11 -275 5 -18 25 -118 44 -223 20 -104 42
-212 49 -240 8 -27 19 -75 26 -106 14 -72 38 -99 90 -99 38 0 40 1 41 33 2 54
-1 79 -21 162 -17 72 -26 147 -59 475 -6 52 -13 109 -16 126 -5 21 -1 42 9 63
l17 31 68 -34 68 -35 33 34 c18 18 29 38 26 44 -4 6 -52 47 -107 92 l-100 81
5 207 c2 113 9 262 14 331 6 69 14 172 17 230 5 66 13 111 22 121 15 18 37
127 35 174 -1 17 -2 46 -2 66 0 20 -7 85 -15 145 -8 59 -15 133 -15 163 -1 31
-7 67 -15 81 -17 29 -20 110 -5 110 6 0 70 -34 142 -76 411 -237 784 -393
1278 -533 205 -59 283 -75 415 -87 39 -3 88 -10 109 -16 36 -9 85 -14 331 -37
50 -4 103 -13 119 -20 24 -9 40 -9 80 3 28 8 76 17 106 20 180 16 428 73 579
132 127 51 293 147 361 209 36 34 81 73 100 89 90 73 290 248 359 316 149 147
425 535 472 664 8 21 20 41 27 44 8 2 37 -1 66 -8 37 -9 59 -9 71 -3 16 9 9
15 -43 44 -34 19 -62 38 -62 44 0 5 20 61 45 125 24 63 52 149 60 190 38 187
39 192 24 245 l-15 50 -52 3 c-61 4 -111 -16 -210 -82 -150 -98 -260 -133
-387 -121 -66 7 -73 10 -118 53 -27 26 -58 64 -68 85 l-20 38 62 -33 c34 -18
75 -47 93 -64 35 -35 86 -64 113 -64 10 0 25 11 34 23 14 18 15 33 7 90 -21
156 -89 337 -191 505 -193 319 -309 434 -638 638 -212 131 -211 129 -343 392
-131 261 -196 404 -226 494 -12 35 -53 121 -91 191 -38 70 -67 132 -65 136 3
4 32 18 64 29 109 40 182 96 430 329 145 137 217 234 297 398 67 136 125 395
125 557 0 37 4 69 10 73 11 7 356 -241 428 -309 30 -28 61 -65 70 -82 10 -18
41 -50 69 -73 29 -23 97 -83 151 -134 54 -52 166 -150 249 -220 83 -69 188
-166 233 -215 76 -82 92 -109 212 -338 78 -151 174 -316 242 -419 63 -93 139
-210 171 -260 32 -49 94 -139 139 -200 46 -60 104 -141 131 -180 27 -38 66
-88 86 -110 20 -22 44 -55 53 -73 10 -18 57 -77 106 -130 49 -53 115 -125 145
-158 33 -36 80 -75 114 -93 l58 -30 31 32 c22 23 32 43 32 65 0 22 5 32 15 32
11 0 15 -13 15 -53 0 -52 -1 -54 -66 -117 -36 -36 -83 -86 -105 -111 -39 -46
-39 -47 -20 -70 18 -24 23 -24 162 -24 160 1 242 18 446 95 215 81 458 285
594 500 26 41 57 89 68 105 31 47 200 393 228 465 13 36 33 92 43 125 10 33
32 99 49 147 16 48 39 129 52 180 27 113 80 312 115 428 14 47 25 112 26 145
0 33 7 75 15 93 13 29 13 39 1 77 -10 30 -12 49 -5 61 6 11 6 45 -1 98 -7 45
-14 104 -17 132 -14 130 -102 317 -225 479 -125 164 -158 210 -254 355 -182
277 -273 407 -322 460 -27 30 -72 84 -99 120 -27 36 -67 85 -90 110 -23 25
-84 109 -135 185 -161 241 -304 423 -499 635 -118 128 -330 381 -428 510 -39
52 -117 145 -173 205 -101 110 -259 335 -319 454 -24 47 -60 86 -178 196 -148
136 -148 136 -163 113 -8 -13 -29 -39 -47 -58 l-32 -35 -33 18 c-18 10 -73 54
-122 99 -49 44 -116 98 -149 119 l-59 38 -33 -25 c-27 -20 -37 -23 -59 -14
-35 13 -87 13 -122 0 -15 -6 -29 -8 -32 -6 -9 10 21 68 45 83 12 8 23 18 23
22 0 3 -20 18 -44 34 l-43 27 -205 0 c-232 0 -248 4 -209 58 l20 29 -22 21
c-15 14 -27 18 -37 12 -8 -4 -41 -13 -73 -19 -32 -6 -98 -29 -147 -50 -81 -37
-199 -67 -333 -87 -43 -6 -51 -4 -75 18 -86 79 -121 79 -210 -2 -44 -40 -72
-58 -82 -54 -8 4 -51 10 -95 13 -65 5 -88 12 -120 34 -34 23 -50 27 -110 27
-42 0 -76 5 -83 12 -21 21 -13 94 18 179 16 45 27 86 24 90 -9 15 -45 10 -71
-11 -14 -11 -32 -20 -39 -20 -28 0 -217 -145 -255 -195 -31 -41 -47 -53 -84
-63 -61 -16 -70 -16 -55 3 13 16 13 15 -70 114 -58 69 -226 194 -294 220 -29
11 -85 22 -124 24 -78 6 -84 8 -161 66 -81 61 -115 58 -200 -17 -36 -32 -94
-80 -129 -106 -35 -26 -79 -72 -99 -102 -20 -30 -39 -54 -43 -54 -8 0 -125
125 -159 170 -14 18 -68 65 -121 104 -80 59 -112 76 -176 95 -44 12 -101 31
-128 42 -27 10 -57 19 -68 19 -10 0 -22 8 -25 18 -4 9 -15 23 -26 31 -10 7
-31 30 -46 52 -16 21 -55 61 -88 88 -33 28 -86 81 -118 118 -31 37 -72 76 -90
85 -18 9 -70 57 -117 107 -53 57 -95 92 -114 97 -16 4 -87 36 -159 71 -71 35
-136 63 -142 63 -7 0 -13 3 -13 8 0 8 109 81 160 107 19 10 89 49 154 88 65
38 150 81 189 94 88 30 177 77 210 111 14 15 29 44 32 65 l7 37 -43 0 c-24 -1
-65 -9 -91 -19z m-633 -521 c3 -11 12 -20 19 -20 7 0 53 -20 103 -44 49 -24
118 -54 152 -66 70 -26 175 -112 298 -244 92 -98 125 -164 131 -260 l4 -73
-51 -31 c-63 -39 -107 -58 -184 -78 -33 -8 -94 -32 -136 -53 -42 -21 -123 -55
-181 -76 -129 -46 -230 -111 -368 -238 -303 -277 -450 -499 -529 -797 -23 -86
-25 -114 -26 -287 l0 -191 47 -154 c117 -377 118 -379 171 -459 l52 -76 1
-104 c0 -152 59 -387 120 -477 41 -62 263 -267 319 -296 27 -13 98 -41 158
-62 102 -35 118 -38 220 -38 70 1 130 7 165 17 30 9 74 22 98 29 56 16 76 4
80 -48 6 -63 -32 -130 -96 -171 -48 -30 -58 -33 -85 -24 -16 6 -48 11 -70 11
-32 0 -48 8 -88 44 -52 47 -242 149 -356 192 -37 14 -102 34 -144 44 -61 14
-96 30 -156 72 -86 60 -218 180 -253 231 -13 19 -38 44 -56 57 -19 12 -48 46
-65 74 -18 28 -42 64 -55 79 -13 16 -24 39 -24 52 0 15 -11 33 -30 47 -16 12
-30 29 -30 37 0 9 -23 63 -51 121 -28 58 -75 164 -104 235 -176 425 -203 474
-356 643 -48 53 -96 105 -106 114 -92 88 -175 160 -208 180 -23 14 -67 49 -99
79 l-58 53 4 126 c4 114 7 132 37 203 49 115 114 207 248 352 65 72 136 156
156 187 20 32 46 66 58 75 58 47 215 190 323 293 105 101 239 209 642 521 77
60 324 216 346 218 4 1 10 -8 13 -19z m925 -800 c30 -5 88 -13 129 -19 83 -12
149 -45 184 -93 12 -17 54 -52 92 -78 76 -53 130 -105 221 -220 32 -41 93
-110 134 -155 42 -44 111 -124 154 -178 43 -54 102 -117 131 -140 67 -53 195
-200 195 -224 0 -10 25 -43 56 -73 30 -30 79 -86 108 -125 55 -72 281 -443
274 -450 -2 -2 -18 3 -35 12 -51 24 -149 119 -215 207 -34 45 -104 126 -157
182 -53 56 -114 130 -136 165 -41 65 -57 77 -63 45 -5 -23 117 -202 180 -266
26 -27 70 -75 97 -108 l50 -60 -35 -27 c-20 -15 -32 -31 -27 -35 4 -4 33 -15
63 -25 56 -18 134 -58 145 -74 3 -6 -8 -31 -25 -57 -27 -43 -30 -56 -30 -130
0 -113 14 -169 61 -250 22 -38 79 -157 125 -264 47 -107 98 -217 115 -243 16
-27 29 -60 29 -75 0 -24 -8 -19 -88 63 -48 50 -100 108 -117 129 -38 48 -44
53 -80 77 -16 10 -77 57 -135 104 -58 47 -155 123 -215 169 -61 46 -119 95
-128 110 -10 14 -37 40 -60 57 -23 16 -69 56 -103 88 -33 31 -103 86 -155 120
l-94 63 -96 -4 c-70 -3 -103 -8 -123 -21 -24 -16 -75 -109 -107 -194 -6 -18
-15 -33 -19 -33 -5 0 -18 15 -29 34 -18 29 -21 49 -21 157 0 145 -17 237 -59
317 -16 31 -39 78 -50 105 -21 50 -35 59 -44 28 -2 -10 8 -37 24 -61 35 -51
43 -83 60 -216 10 -90 10 -107 -5 -156 -14 -42 -16 -75 -12 -144 6 -96 7 -126
4 -176 -1 -18 3 -70 9 -116 8 -64 16 -89 34 -108 27 -29 55 -33 44 -6 -14 32
-17 109 -6 128 9 17 10 17 11 -6 0 -18 20 -45 66 -90 l66 -65 -5 38 c-7 45 6
48 44 11 l28 -27 -21 -27 c-11 -15 -28 -52 -37 -81 -19 -60 -15 -57 -202 -144
-53 -24 -119 -62 -147 -85 -28 -22 -56 -40 -61 -40 -5 0 -34 -21 -65 -47 -31
-27 -67 -48 -79 -49 -12 -1 -28 -3 -36 -5 -8 -3 -19 12 -29 38 -11 30 -24 45
-44 52 -15 6 -32 20 -37 33 -5 13 -21 34 -35 47 -17 17 -26 35 -26 56 0 19 -8
39 -20 50 -15 14 -20 31 -20 68 0 42 -8 64 -46 129 -31 52 -51 77 -60 74 -20
-8 -63 42 -76 89 -7 24 -34 64 -68 101 -31 33 -62 75 -69 92 -8 18 -17 32 -21
32 -15 0 -18 -56 -4 -95 7 -22 14 -54 14 -71 0 -18 14 -61 31 -97 17 -37 37
-103 45 -149 41 -238 41 -238 87 -287 108 -117 149 -184 168 -273 6 -29 18
-65 25 -80 20 -39 17 -70 -9 -109 -20 -30 -32 -36 -116 -56 -62 -15 -100 -19
-111 -13 -9 5 -56 14 -103 20 -105 13 -133 24 -222 90 -49 37 -62 50 -44 46
23 -5 32 1 65 41 l38 46 -20 36 c-38 70 -164 140 -199 111 -18 -15 -20 -82 -4
-112 6 -11 9 -21 7 -24 -9 -8 -68 44 -93 81 -21 33 -65 150 -65 174 0 4 17 5
38 3 56 -5 70 16 47 69 -24 53 -43 63 -74 38 -31 -25 -39 -16 -53 60 -9 46 -9
94 -1 189 11 130 19 159 61 224 21 32 27 35 42 25 15 -9 23 -7 40 8 17 15 20
26 15 53 -9 46 36 113 146 218 182 173 183 174 171 186 -17 17 -109 -8 -142
-37 -14 -12 -53 -39 -88 -59 -44 -27 -74 -54 -101 -94 -22 -32 -66 -84 -100
-116 -57 -56 -62 -59 -87 -47 -20 9 -30 9 -40 0 -18 -15 -18 -15 -38 54 -9 31
-21 57 -26 57 -16 0 -29 71 -24 134 5 56 3 65 -26 108 -26 39 -33 63 -41 130
-5 46 -11 106 -15 133 -4 37 -1 66 15 113 12 35 19 68 15 73 -3 6 3 17 15 25
15 11 21 26 21 50 0 39 12 68 43 101 18 21 19 27 8 84 -7 33 -10 63 -7 66 2 3
15 -11 28 -31 13 -20 26 -36 29 -36 4 0 17 16 30 35 16 23 29 33 39 29 42 -17
47 -15 63 25 24 59 4 91 -58 91 -67 0 -24 69 159 255 l113 115 51 0 c47 0 53
3 67 30 l16 30 -41 -6 c-59 -10 -51 8 33 67 104 74 203 121 388 184 250 86
375 107 519 85z m1096 -99 c5 -11 25 -30 44 -43 30 -20 35 -30 38 -67 4 -57
-25 -91 -79 -91 -43 0 -47 7 -56 91 -8 77 3 129 26 129 10 0 22 -9 27 -19z
m-126 -130 l0 -109 -49 -17 c-36 -12 -55 -13 -69 -6 -16 8 -23 3 -48 -40 l-29
-50 -22 27 c-19 25 -20 30 -8 54 7 14 16 41 20 60 9 47 21 62 82 94 28 16 66
43 84 62 18 19 34 34 36 34 2 0 3 -49 3 -109z m381 73 c121 -36 259 -121 310
-191 41 -56 101 -155 97 -158 -25 -19 -45 -22 -70 -9 -15 8 -28 21 -28 28 0 8
-15 16 -37 19 -81 11 -145 43 -191 96 -34 40 -50 51 -73 51 -29 0 -29 1 -29
55 0 42 -4 55 -15 55 -18 0 -48 -57 -41 -77 5 -11 2 -13 -10 -9 -8 3 -20 6
-25 6 -14 0 -11 124 3 138 16 16 44 15 109 -4z m824 -156 c-3 -13 -9 -70 -12
-127 -6 -99 -5 -104 13 -96 11 4 52 10 91 12 65 5 90 1 228 -38 85 -24 155
-47 155 -52 0 -16 -84 -87 -126 -106 -24 -12 -65 -31 -90 -42 -60 -28 -151
-114 -189 -178 -16 -28 -35 -51 -41 -51 -6 0 -23 45 -38 101 -25 93 -26 103
-11 123 8 11 30 42 47 67 18 25 48 58 66 73 41 35 44 60 5 45 -16 -6 -41 -21
-58 -33 -16 -12 -38 -25 -48 -29 -9 -4 -21 -15 -24 -24 -4 -10 -24 -40 -45
-68 -51 -66 -84 -179 -92 -310 -6 -100 -6 -100 -43 -132 -20 -18 -42 -33 -48
-33 -12 0 -39 47 -74 133 l-20 48 -34 -15 -34 -14 -12 38 c-33 110 4 228 131
420 101 153 161 229 173 218 8 -7 -48 -97 -110 -178 -24 -30 -55 -79 -69 -107
l-26 -53 24 0 c31 0 130 106 146 157 28 88 106 242 130 257 35 21 44 20 35 -6z
m1351 -132 c-14 -34 -14 -35 12 -53 23 -16 56 -19 251 -23 267 -6 267 -6 208
-95 l-38 -56 34 -14 c26 -11 43 -12 71 -4 21 6 52 7 69 4 77 -16 176 -102 219
-189 l21 -44 -24 -83 c-13 -46 -34 -95 -45 -108 -20 -23 -24 -24 -50 -12 -16
8 -90 17 -164 22 -129 9 -140 8 -250 -18 -113 -28 -115 -29 -170 -84 -65 -66
-104 -133 -126 -218 -12 -48 -13 -69 -5 -93 6 -17 11 -32 11 -33 0 -1 -25 -5
-55 -8 -79 -8 -155 -46 -201 -101 -28 -33 -45 -46 -65 -46 -14 0 -45 -13 -69
-29 -47 -32 -43 -32 -142 12 -31 14 -76 26 -100 27 -92 2 -114 1 -149 -5 -23
-4 -39 -3 -43 4 -4 6 -26 11 -49 11 -31 1 -64 13 -126 48 -72 40 -86 52 -93
80 -7 25 -13 32 -26 28 -14 -5 -29 12 -66 73 -66 109 -76 150 -76 306 l0 132
38 54 c46 66 145 142 259 199 49 25 91 54 101 69 9 14 47 61 86 104 l69 78 29
-36 c28 -33 33 -35 91 -35 48 0 65 4 83 21 20 18 26 19 61 9 33 -10 45 -9 78
6 23 10 67 18 103 18 64 1 68 -2 62 -44 -1 -9 10 -4 29 14 45 43 38 65 -22 66
-21 1 -21 1 -4 15 11 7 38 17 60 20 23 4 58 16 77 26 49 25 52 24 36 -15z
m-2194 -80 c77 -32 178 -97 178 -116 0 -31 -124 -180 -151 -180 -20 0 -51 -29
-78 -74 -33 -53 -54 -48 -151 34 -107 90 -188 184 -203 235 -6 18 1 22 66 37
39 10 101 33 137 52 79 41 124 44 202 12z m508 -1 c0 -3 -31 -61 -70 -129 -57
-101 -70 -132 -70 -167 0 -38 -4 -46 -29 -61 -20 -11 -42 -15 -69 -11 -25 3
-50 0 -70 -11 -42 -21 -59 -20 -73 5 -9 18 -6 32 17 81 26 53 46 74 174 179
89 73 154 119 168 119 12 0 22 -2 22 -5z m2591 -253 c24 -16 82 -61 128 -100
104 -89 130 -93 206 -32 l50 39 48 -47 c63 -61 205 -233 245 -296 17 -27 41
-78 53 -114 19 -57 36 -81 136 -191 63 -69 134 -146 158 -171 24 -25 59 -69
79 -98 19 -29 68 -92 109 -140 85 -101 123 -155 162 -232 18 -35 67 -96 140
-170 164 -169 323 -345 400 -446 38 -49 92 -114 120 -144 28 -30 67 -81 86
-113 19 -33 41 -63 50 -67 22 -12 130 -146 161 -200 14 -25 35 -54 47 -64 12
-11 21 -27 21 -37 0 -9 33 -57 74 -106 l74 -88 -23 -20 c-13 -11 -25 -29 -27
-40 -3 -13 -10 0 -21 37 -26 85 -111 156 -178 146 -32 -4 -36 -34 -10 -68 11
-15 23 -40 27 -55 4 -16 19 -34 37 -44 17 -9 48 -33 68 -53 21 -21 47 -38 57
-38 12 0 24 -11 31 -28 10 -23 8 -36 -9 -76 -18 -39 -20 -58 -15 -110 6 -51 4
-64 -8 -69 -13 -5 -15 -28 -14 -138 l1 -132 37 -24 c30 -20 37 -31 43 -69 8
-60 31 -103 63 -115 29 -11 46 -1 69 42 19 38 17 86 -6 134 -11 22 -19 50 -20
63 0 19 5 22 44 22 39 0 48 4 75 37 19 23 31 50 32 68 1 36 4 28 19 -48 10
-49 17 -61 43 -78 44 -26 55 -24 74 15 l16 35 59 -74 c32 -41 58 -77 58 -80 0
-3 -18 -5 -41 -5 -22 0 -48 -4 -58 -9 -14 -8 -27 0 -67 40 -44 45 -52 49 -96
49 -42 0 -50 -4 -73 -34 l-26 -34 22 -56 c32 -86 51 -103 140 -119 75 -13 77
-13 104 11 l28 23 38 -37 c34 -34 40 -36 68 -26 35 12 33 15 51 -97 11 -63 10
-75 -3 -89 -17 -16 -15 -19 -33 68 -10 48 -36 88 -62 98 -61 23 -84 24 -106 3
-12 -12 -45 -24 -79 -29 -56 -9 -58 -8 -77 18 -13 18 -35 32 -67 40 l-48 12
-41 -46 c-50 -54 -77 -111 -94 -190 -15 -72 -7 -756 10 -856 10 -60 15 -69 63
-112 50 -46 51 -47 19 -37 -28 9 -36 8 -52 -6 -11 -10 -20 -23 -20 -29 0 -6
-11 -28 -25 -48 -31 -46 -31 -66 1 -129 23 -47 66 -79 103 -79 24 0 43 63 37
117 -9 77 2 93 67 93 41 0 63 6 99 29 57 36 87 75 131 171 28 59 36 69 36 48
1 -40 -16 -103 -75 -278 -94 -282 -344 -750 -489 -918 -36 -41 -111 -89 -123
-78 -9 9 30 47 71 67 20 11 37 25 37 33 0 7 24 50 54 94 82 124 82 158 0 169
-52 7 -75 -19 -153 -172 -40 -78 -73 -131 -96 -150 -38 -33 -40 -59 -4 -70 28
-9 23 -34 -8 -47 -16 -7 -71 -36 -124 -65 -53 -29 -101 -53 -108 -53 -7 0 -60
-20 -117 -45 -112 -49 -244 -85 -311 -85 -24 0 -43 2 -43 4 0 3 10 21 21 41
24 40 9 38 167 16 51 -8 55 -7 138 43 l85 51 -32 8 c-20 5 -36 4 -42 -2 -16
-16 -73 -13 -107 4 l-30 15 25 49 c14 27 23 55 19 64 -10 26 -42 20 -58 -10
l-15 -28 -1 38 c0 26 -11 54 -37 92 l-36 55 21 23 c34 36 29 77 -13 110 -38
30 -56 87 -36 111 10 12 25 7 89 -29 71 -40 77 -42 80 -24 5 28 -13 46 -77 79
-108 55 -186 171 -170 255 7 36 5 42 -19 62 -15 13 -30 23 -34 23 -5 0 -8 29
-8 65 0 69 -16 121 -43 144 -11 9 -17 29 -17 59 0 33 -6 52 -21 68 -19 20 -20
26 -9 59 11 33 10 39 -9 59 -17 18 -21 35 -21 86 0 60 -2 67 -35 100 l-35 36
20 47 21 47 -36 59 c-40 65 -64 123 -65 159 0 12 -9 40 -20 62 -11 22 -20 50
-20 62 0 13 9 41 20 63 11 22 20 40 20 41 0 1 -16 8 -35 14 -53 18 -79 77 -53
120 11 17 8 24 -23 57 l-36 38 14 45 c14 47 12 52 -35 79 -14 8 -20 76 -9 107
6 16 2 23 -17 32 -18 8 -27 25 -41 81 -12 51 -22 72 -36 76 -15 5 -19 16 -19
53 1 41 2 45 14 30 19 -26 26 -22 26 12 0 18 -5 30 -13 30 -16 0 -62 94 -53
108 3 5 0 12 -8 15 -10 4 -13 17 -9 45 4 28 -1 50 -17 81 -15 31 -19 46 -11
54 17 17 13 59 -10 96 -15 25 -19 45 -15 69 7 46 -43 241 -82 317 -16 33 -45
80 -64 105 -30 39 -43 46 -98 60 l-62 15 -20 60 c-11 33 -25 82 -32 109 l-12
49 -17 -26 c-13 -20 -14 -32 -7 -58 6 -19 10 -69 10 -111 l0 -77 -42 -19 c-24
-11 -52 -29 -62 -41 -26 -28 -36 -27 -37 7 0 15 -4 35 -8 45 -6 16 -12 13 -45
-27 -29 -36 -43 -46 -64 -44 -15 1 -37 -2 -48 -6 -20 -6 -25 1 -54 70 -27 66
-32 87 -28 140 4 67 -1 73 -58 74 -29 0 -89 -75 -104 -130 -20 -74 23 -172
131 -300 21 -25 39 -56 39 -68 0 -20 -5 -22 -50 -22 -41 0 -55 5 -83 30 -19
17 -41 30 -49 30 -7 0 -28 19 -46 42 -29 37 -32 48 -27 83 4 22 18 64 31 94
13 29 24 69 24 87 l0 35 -67 -7 c-38 -3 -83 -10 -101 -16 -18 -5 -36 -8 -38
-5 -7 7 12 43 46 87 36 47 72 149 68 193 l-3 36 -55 -35 c-33 -21 -67 -34 -87
-34 -29 0 -33 3 -33 28 0 15 17 53 40 86 45 66 54 104 20 86 -18 -10 -20 -8
-20 23 0 32 3 35 65 62 36 15 65 30 65 34 0 4 -10 13 -22 20 -19 10 -38 7
-112 -19 -69 -23 -92 -27 -98 -18 -15 24 -8 36 57 89 63 52 77 80 43 87 -9 2
-19 -5 -23 -17 -4 -14 -15 -21 -31 -21 -41 0 -32 42 16 75 77 53 36 61 -80 15
-41 -17 -79 -30 -83 -30 -13 0 3 80 24 120 10 19 36 62 58 94 22 33 38 63 35
68 -3 4 -16 8 -30 8 -20 0 -24 5 -24 31 l0 31 82 -3 c70 -3 83 -2 86 12 2 11
-12 24 -42 39 -44 21 -47 21 -96 5 -62 -21 -115 -13 -100 14 5 10 41 35 79 55
76 39 96 68 64 91 -63 46 52 430 182 608 29 38 41 47 66 47 34 0 64 28 111
100 60 94 78 232 39 305 -21 40 -28 75 -13 75 4 0 28 -13 53 -28z m-3022 -139
c0 -27 -4 -57 -8 -67 -7 -19 -8 -19 -15 -1 -6 18 -9 16 -28 -13 -22 -36 -27
-37 -52 -19 -25 18 -14 49 36 103 54 58 68 57 67 -3z m298 -293 c7 -27 39
-107 71 -178 49 -107 65 -132 101 -159 23 -18 48 -33 54 -33 7 0 65 43 130 96
68 55 124 94 132 90 13 -5 55 -87 55 -110 1 -27 50 -128 95 -195 l49 -73 -23
-19 c-28 -23 -33 -24 -177 -38 -61 -6 -133 -18 -160 -26 -27 -8 -76 -15 -109
-15 -76 0 -116 25 -179 113 -46 64 -116 200 -116 225 0 7 -11 28 -24 45 -13
18 -37 59 -54 92 -16 33 -39 69 -51 79 -15 14 -21 31 -21 60 l0 41 44 -3 c49
-4 88 12 125 52 30 32 40 24 58 -44z m-4557 -571 c51 -24 86 -52 165 -132 124
-127 188 -234 204 -343 27 -176 104 -369 186 -461 25 -28 78 -75 118 -104 39
-29 91 -69 114 -90 23 -21 64 -52 91 -68 29 -19 54 -44 65 -65 9 -20 35 -49
58 -66 24 -17 64 -59 90 -93 71 -95 150 -148 314 -211 50 -19 114 -43 142 -55
29 -11 92 -28 140 -36 88 -15 258 -54 363 -83 l55 -15 -42 -10 c-33 -8 -53 -6
-85 6 -24 8 -75 16 -114 17 -104 2 -239 32 -348 79 -53 23 -109 41 -124 41
-16 0 -50 11 -75 25 -25 13 -64 29 -87 35 -23 6 -47 21 -56 35 -9 13 -40 38
-71 55 -33 19 -111 88 -202 178 -80 81 -175 167 -211 192 -99 70 -151 120
-145 140 4 12 -33 63 -115 163 -66 80 -120 151 -120 157 0 7 -9 25 -20 40 -12
16 -32 55 -47 87 -52 115 -222 383 -243 383 -5 0 -46 48 -90 107 -56 74 -80
115 -80 134 l0 29 53 -21 c28 -11 81 -34 117 -50z m6750 -86 l-1 -58 -59 -37
c-41 -25 -65 -49 -80 -77 l-20 -41 50 -31 50 -31 0 -57 c0 -44 -8 -77 -35
-138 -25 -58 -35 -96 -35 -132 l0 -52 38 8 c20 4 53 8 72 8 28 0 36 -5 44 -26
8 -22 3 -34 -38 -85 l-46 -59 75 -38 75 -37 0 -45 c0 -24 -5 -47 -11 -51 -23
-14 -69 -99 -69 -126 0 -16 8 -38 18 -49 21 -22 42 -83 42 -123 0 -15 -13 -53
-30 -86 -49 -98 -48 -100 71 -100 97 0 101 -1 96 -20 -3 -11 -15 -63 -28 -114
l-23 -95 28 -41 c15 -22 32 -43 39 -45 101 -30 279 -90 281 -94 2 -3 -10 -58
-26 -121 -27 -107 -29 -127 -28 -295 0 -99 5 -209 11 -245 8 -54 66 -298 85
-362 3 -10 0 -18 -7 -18 -17 0 -162 126 -249 217 -275 285 -348 356 -454 441
-66 53 -147 120 -180 150 -34 30 -97 81 -142 113 l-81 58 -6 143 c-6 158 -31
271 -87 394 -16 37 -30 70 -30 73 0 3 18 17 41 31 l41 25 -4 175 c-2 108 -8
183 -15 196 -7 12 -17 51 -23 88 -6 37 -17 77 -25 89 -7 12 -17 45 -20 72 -4
28 -16 76 -26 107 -11 32 -19 74 -19 95 0 51 -26 133 -46 148 -25 18 -10 49
51 101 29 26 55 54 58 64 5 21 150 83 233 100 54 11 114 9 190 -6 28 -5 34 -1
68 45 l38 51 74 0 74 0 0 -57z m-1424 -23 c46 -34 60 -40 104 -40 52 0 112 19
141 46 16 14 21 14 52 -1 18 -8 48 -31 66 -49 l32 -33 -83 -65 c-70 -54 -83
-69 -86 -96 -2 -18 -6 -32 -8 -32 -3 0 -39 14 -80 31 -58 24 -80 29 -97 22
-15 -7 -31 -6 -52 3 -25 10 -34 10 -54 -3 -20 -13 -43 -15 -118 -10 -101 7
-169 30 -213 72 -14 13 -41 31 -62 39 -29 12 -35 20 -31 36 4 14 0 20 -11 20
-9 0 -16 4 -16 10 0 36 222 84 404 89 55 1 63 -2 112 -39z m-676 -76 c0 -13
-2 -24 -5 -24 -7 0 -26 40 -36 74 l-8 31 24 -28 c14 -15 25 -39 25 -53z
m-5050 -184 l43 -51 -94 -95 c-102 -104 -149 -134 -205 -134 -33 0 -36 2 -30
24 3 14 16 66 27 118 23 100 49 166 106 267 l35 64 37 -71 c21 -38 57 -93 81
-122z m3844 165 c11 -8 18 -16 15 -18 -2 -2 -25 -16 -51 -30 -88 -51 -97 -90
-42 -183 l36 -61 73 -7 c78 -7 151 4 191 30 23 15 24 15 24 -3 0 -55 -242 -94
-321 -52 -10 5 -31 28 -47 52 -25 36 -30 55 -36 135 l-7 93 63 29 c73 34 77
34 102 15z m1262 -155 c-17 -101 -53 -160 -99 -160 -18 0 -28 8 -37 30 -16 38
-7 48 60 80 l50 23 1 66 1 66 15 -35 c9 -21 13 -48 9 -70z m-89 -16 c-7 -7
-127 9 -127 17 0 4 28 16 63 26 l62 19 3 -29 c2 -16 2 -31 -1 -33z m219 35
c57 -20 60 -23 60 -53 0 -17 4 -39 8 -48 7 -15 0 -17 -46 -20 l-53 -3 -3 -68
c-3 -60 -5 -67 -21 -62 -13 4 -31 -12 -70 -60 -51 -63 -54 -65 -72 -49 -13 12
-19 31 -19 60 0 42 2 45 48 68 47 24 47 25 71 112 13 49 25 101 25 116 1 15 3
28 6 28 3 0 32 -9 66 -21z m990 -50 c30 -42 35 -55 26 -69 -8 -13 -7 -28 5
-62 15 -40 15 -47 1 -75 -15 -30 -14 -31 13 -47 25 -15 27 -19 17 -41 -9 -20
-6 -31 15 -68 l26 -43 -23 -41 c-17 -30 -21 -45 -14 -58 13 -22 -7 -96 -33
-124 -15 -16 -17 -25 -9 -40 13 -26 13 -90 -1 -130 -11 -30 -9 -35 20 -65 24
-25 28 -35 19 -44 -28 -28 -78 -11 -141 46 l-27 26 -35 -34 c-27 -26 -37 -31
-48 -22 -53 44 -53 369 -1 813 8 67 68 123 136 128 9 0 33 -22 54 -50z m-3602
-95 c17 -16 22 -44 8 -44 -8 0 -32 43 -32 55 0 9 9 5 24 -11z m3206 -21 c42
-30 62 -54 93 -111 39 -73 39 -74 22 -105 -15 -28 -16 -63 -13 -297 4 -311 4
-311 84 -330 l54 -13 0 -54 c0 -40 -6 -63 -24 -91 -14 -20 -33 -65 -42 -99
-10 -35 -21 -63 -27 -63 -12 0 -196 128 -318 221 -145 111 -298 250 -393 358
-138 157 -127 134 -97 208 31 79 65 114 142 144 l59 24 0 54 c0 46 4 60 27 83
15 15 37 28 49 28 25 0 54 34 54 62 0 16 12 18 138 18 l139 0 53 -37z m-1610
3 c23 -13 20 -14 -48 -18 -73 -3 -87 2 -54 21 24 15 72 13 102 -3z m93 -77
c12 -7 48 -35 81 -62 l58 -51 -28 -24 c-71 -58 -68 -58 -129 -17 -125 82 -225
110 -374 103 -56 -3 -101 -2 -101 2 0 14 49 32 126 45 101 17 337 19 367 4z
m-1602 -82 c11 -21 28 -46 37 -55 32 -32 72 -101 72 -123 0 -12 11 -41 25 -64
22 -38 49 -125 41 -132 -2 -2 -15 15 -30 37 -14 22 -53 70 -87 107 -33 37 -71
87 -84 113 -22 43 -45 138 -45 184 0 18 1 18 26 -5 14 -13 35 -41 45 -62z
m1286 -8 c98 -14 136 -27 218 -75 42 -25 65 -45 65 -57 0 -11 -25 -49 -55 -85
-31 -37 -61 -84 -67 -105 -18 -58 -33 -65 -69 -31 -17 16 -52 58 -79 94 -76
102 -122 135 -208 150 l-72 12 21 29 c24 34 102 78 141 79 15 0 62 -5 105 -11z
m693 -219 c66 -66 120 -123 120 -127 -1 -20 -51 -63 -73 -63 -20 0 -30 10 -48
48 -18 36 -36 53 -74 74 -27 15 -57 28 -65 28 -9 0 -32 12 -53 26 -21 14 -46
26 -57 27 -15 1 -57 64 -48 72 2 2 41 10 88 18 47 8 86 15 88 16 1 0 56 -53
122 -119z m-793 11 c63 -62 117 -153 128 -213 l7 -37 -123 -5 c-208 -9 -303
-17 -315 -27 -7 -6 -32 0 -68 16 -31 14 -59 25 -64 26 -4 1 -22 18 -39 39 -54
63 -42 120 35 159 12 6 22 18 22 25 0 17 43 36 84 36 20 0 40 8 51 20 16 18
31 20 121 20 l102 0 59 -59z m937 -19 c22 -43 30 -76 17 -68 -13 8 -35 49 -46
85 -9 31 10 19 29 -17z m-480 -169 c41 -29 79 -85 91 -133 6 -26 5 -26 -113
-49 -157 -30 -151 -30 -174 0 -18 24 -19 31 -7 85 9 44 21 69 48 97 33 35 40
38 75 34 22 -3 58 -18 80 -34z m-3816 -3 c29 -18 32 -24 32 -68 0 -47 -2 -49
-90 -137 -56 -56 -90 -97 -90 -110 0 -45 -32 -125 -85 -213 -31 -51 -59 -109
-62 -130 -8 -52 -38 -82 -82 -82 -54 0 -81 32 -81 94 0 29 -9 70 -20 95 -13
28 -20 65 -20 105 0 53 5 70 38 126 49 85 144 180 267 268 110 78 137 86 193
52z m4392 9 c0 -7 15 -33 34 -59 49 -67 66 -104 66 -140 0 -27 -3 -30 -32 -29
-24 0 -39 8 -54 27 -26 33 -94 157 -94 171 0 11 48 40 68 41 6 0 12 -5 12 -11z
m-254 -89 l81 0 21 -72 c27 -93 36 -159 28 -202 -6 -32 -10 -35 -44 -38 -32
-3 -40 -9 -62 -48 l-25 -45 -11 70 c-12 77 -55 166 -109 226 -19 21 -35 52
-39 75 -4 21 -9 52 -12 67 l-6 28 48 -31 c43 -27 56 -30 130 -30z m536 -138
c45 -58 213 -191 365 -288 48 -31 126 -85 173 -119 47 -34 108 -75 135 -90 28
-16 52 -30 54 -32 8 -6 30 -198 30 -258 0 -33 -6 -90 -12 -126 -10 -56 -17
-70 -48 -97 -56 -49 -163 -269 -251 -516 -30 -83 -38 -120 -33 -146 3 -19 8
-49 11 -65 4 -19 -2 -51 -15 -85 -16 -43 -21 -78 -21 -158 0 -101 0 -102 21
-92 39 21 39 4 1 -74 l-38 -79 -141 225 c-218 347 -408 706 -507 956 -31 79
-90 217 -131 307 -64 139 -75 172 -75 217 l1 53 85 73 c68 57 92 72 118 72
l33 0 -4 -72 c-2 -40 -6 -89 -9 -109 -3 -21 -1 -39 5 -43 7 -5 7 -14 -1 -31
-8 -18 -8 -32 1 -53 10 -23 10 -34 1 -49 -10 -16 -7 -29 17 -78 l30 -60 -18
-62 c-17 -60 -17 -62 0 -53 10 5 43 36 74 70 44 47 61 75 77 126 11 36 20 79
20 94 0 15 10 49 23 76 20 45 22 62 20 213 -2 214 -19 278 -80 302 -18 7 -23
16 -23 47 0 22 -14 67 -35 110 l-35 73 70 -61 c38 -35 89 -87 112 -118z
m-2222 112 c32 -29 46 -35 71 -32 25 4 33 0 45 -23 18 -36 18 -75 -1 -83 -35
-13 -105 32 -105 68 0 11 -19 40 -42 63 -53 54 -27 60 32 7z m2358 -86 c75
-62 189 -156 254 -209 213 -177 282 -222 578 -370 152 -76 464 -275 685 -438
70 -51 212 -185 470 -441 280 -278 440 -427 656 -611 157 -135 323 -274 368
-309 72 -57 106 -96 264 -305 292 -387 362 -471 473 -560 54 -43 92 -81 86
-83 -7 -2 -29 11 -50 29 -324 283 -340 300 -474 479 -248 330 -304 390 -552
589 -121 98 -241 200 -266 226 -25 26 -178 170 -340 319 -162 150 -349 329
-415 398 -66 69 -160 156 -210 194 -49 37 -113 87 -141 111 -28 23 -71 52 -95
63 -24 12 -66 39 -93 60 -27 21 -97 65 -155 98 -58 33 -142 79 -186 104 -161
90 -457 275 -577 360 -202 143 -476 408 -423 408 3 0 67 -50 143 -112z m-1998
6 c14 -4 51 -15 82 -25 32 -11 74 -19 95 -19 37 1 59 7 204 63 79 30 195 47
264 38 44 -5 50 -9 53 -32 5 -41 -35 -133 -74 -172 -39 -39 -111 -77 -145 -77
-54 0 -237 33 -283 52 -28 11 -92 23 -142 28 -131 11 -155 21 -176 73 -23 55
-23 94 2 135 l20 33 38 -45 c20 -25 48 -48 62 -52z m-2570 10 c25 -25 80 -71
122 -101 43 -30 80 -59 84 -64 3 -5 29 -25 59 -44 46 -29 84 -70 73 -80 -8 -7
-126 -63 -147 -70 -14 -4 -47 -22 -75 -40 -28 -17 -80 -47 -115 -66 -161 -85
-275 -250 -350 -511 -16 -58 -50 -146 -73 -194 -34 -70 -50 -92 -80 -108 -46
-26 -55 -18 -68 55 -22 122 -37 185 -48 206 -7 12 -15 84 -18 160 l-6 138 66
65 c48 47 66 72 66 91 0 14 11 41 25 60 14 19 34 54 46 79 82 177 115 228 248
374 39 43 71 82 71 87 0 5 17 9 38 9 32 0 45 -7 82 -46z m3740 -71 c46 -52 68
-108 72 -182 l3 -65 -48 -20 -47 -20 -35 34 c-32 31 -35 39 -35 89 0 54 -2 57
-41 84 -41 30 -42 31 -18 95 7 19 16 22 63 22 50 0 56 -3 86 -37z m-372 -19
c18 -5 22 -13 22 -45 l0 -39 -50 0 c-27 0 -50 4 -50 10 0 19 34 80 44 80 6 0
21 -3 34 -6z m805 -30 c37 -10 67 -21 67 -25 0 -4 -18 -22 -40 -39 l-40 -32
-45 27 c-40 23 -45 30 -45 62 0 29 3 34 18 30 9 -2 47 -13 85 -23z m-673 -2
c0 -4 -5 -13 -12 -20 -14 -14 2 -36 52 -67 30 -19 39 -33 53 -85 10 -34 16
-65 13 -67 -9 -9 -97 50 -126 85 -33 40 -39 90 -18 137 10 23 38 36 38 17z
m849 -61 c11 -7 13 -47 8 -217 -5 -203 -16 -297 -29 -263 -3 9 -12 50 -19 92
-10 62 -10 91 0 157 9 50 11 107 7 150 -9 85 -2 103 33 81z m1205 -27 c9 -8
16 -29 16 -45 0 -16 9 -90 21 -163 11 -73 19 -156 17 -184 l-3 -50 -145 80
c-80 43 -162 90 -183 104 l-37 24 31 63 c17 34 40 74 51 89 33 48 121 89 205
97 6 1 19 -6 27 -15z m-3114 -19 c0 -23 -2 -24 -21 -15 -15 9 -24 8 -35 -1
-11 -9 -14 -7 -14 15 0 23 4 26 35 26 31 0 35 -3 35 -25z m1544 -91 c9 -3 16
-11 16 -18 0 -22 -51 -86 -69 -86 -27 0 -34 29 -14 58 42 59 39 57 67 46z
m-1486 -30 c8 -14 12 -14 30 -3 19 12 25 10 52 -16 16 -16 30 -32 30 -37 0
-17 -60 -39 -79 -29 -12 7 -22 6 -30 -2 -9 -9 -16 -9 -32 1 -17 11 -24 9 -48
-10 -38 -30 -65 -86 -51 -103 8 -9 6 -14 -5 -19 -21 -8 -29 17 -20 62 4 20 8
53 9 72 3 49 22 79 54 86 15 3 32 7 37 9 24 8 45 4 53 -11z m-1962 -158 c-8
-20 -38 -61 -67 -91 -64 -68 -95 -72 -151 -20 -21 18 -38 43 -38 53 0 27 63
106 122 153 l51 40 50 -49 49 -49 -16 -37z m-1366 24 c0 -38 8 -64 38 -117 36
-67 37 -71 45 -213 12 -207 12 -203 -2 -335 -7 -66 -14 -142 -15 -170 -2 -56
-22 -147 -40 -185 -6 -14 -24 -29 -39 -34 -24 -9 -31 -6 -57 25 -40 45 -105
179 -125 254 -14 55 -14 65 1 112 12 39 14 59 6 81 -6 19 -7 47 0 82 11 64 5
97 -22 105 -19 6 -18 9 14 51 58 76 76 154 52 229 -5 16 3 28 38 55 33 25 45
42 46 61 0 17 8 30 23 37 35 17 37 15 37 -38z m4729 -101 c24 -63 48 -136 53
-164 5 -27 27 -84 48 -125 21 -41 57 -122 80 -180 43 -108 140 -301 217 -427
24 -40 57 -105 73 -145 16 -39 45 -97 64 -128 20 -32 50 -89 66 -126 17 -38
36 -73 43 -79 7 -5 24 -35 39 -65 26 -52 44 -81 146 -248 23 -38 55 -100 69
-138 15 -38 44 -99 65 -136 21 -37 47 -91 59 -120 11 -29 56 -119 100 -199 43
-80 122 -235 174 -344 53 -108 123 -246 156 -307 33 -60 69 -133 79 -161 9
-29 39 -87 64 -130 26 -43 70 -124 98 -180 28 -56 76 -147 108 -202 31 -55 78
-140 104 -190 48 -93 70 -124 195 -270 54 -63 71 -89 63 -97 -11 -11 -101 78
-196 194 -65 79 -284 425 -363 573 -38 72 -82 148 -97 170 -16 22 -61 108
-102 190 -88 177 -187 361 -208 384 -8 9 -23 40 -34 69 -11 29 -54 112 -95
185 -140 248 -158 282 -268 507 -61 124 -126 246 -145 272 -19 27 -44 69 -57
95 -13 27 -73 140 -134 253 -214 400 -487 973 -545 1145 -39 115 -47 202 -23
239 16 24 20 25 39 13 12 -9 38 -59 65 -128z m-3152 71 c34 -21 81 -40 104
-44 23 -4 82 -25 130 -47 l87 -41 -31 -66 c-26 -54 -32 -80 -32 -137 l-1 -70
-87 -64 -88 -63 -48 45 c-27 25 -82 62 -122 83 -41 20 -95 50 -120 67 -43 28
-48 35 -59 89 l-13 58 44 63 c124 179 122 176 149 170 14 -3 53 -23 87 -43z
m2223 -41 c-11 -26 -14 -28 -25 -13 -6 10 -17 14 -23 10 -21 -13 -13 37 10 61
l22 24 14 -27 c11 -21 11 -32 2 -55z m764 -76 c-6 -22 -42 -43 -74 -43 -10 0
-24 -8 -29 -17 -8 -14 -10 -6 -11 34 0 48 2 53 43 87 l42 36 17 -38 c9 -21 15
-48 12 -59z m3826 45 c59 -45 69 -58 70 -84 0 -17 13 -56 29 -85 24 -45 30
-72 36 -154 4 -55 18 -142 31 -193 13 -51 24 -113 24 -137 0 -40 5 -50 35 -76
28 -25 35 -38 35 -68 0 -25 7 -44 20 -56 16 -14 20 -31 20 -75 0 -63 13 -111
42 -152 15 -22 16 -31 7 -52 -10 -22 -8 -29 15 -56 14 -17 35 -64 46 -103 12
-40 34 -117 51 -172 16 -55 29 -123 29 -151 0 -38 8 -65 31 -107 30 -56 30
-58 16 -101 l-15 -44 34 -33 c25 -24 34 -41 34 -66 0 -19 9 -59 20 -90 11 -32
20 -77 20 -102 0 -32 6 -51 22 -68 20 -21 21 -27 9 -59 -12 -33 -11 -36 21
-72 28 -30 37 -52 47 -112 9 -47 22 -86 37 -106 25 -33 43 -94 27 -94 -5 0
-57 48 -115 108 -99 100 -237 276 -356 454 -29 43 -77 105 -107 139 -30 34
-55 65 -55 70 0 4 -40 41 -89 81 -331 272 -371 308 -371 340 0 11 -14 54 -31
96 -17 43 -32 94 -33 114 -1 20 -9 45 -17 55 -20 23 -50 126 -54 183 -1 25 -7
76 -13 114 -6 38 -8 74 -6 81 3 7 1 16 -5 20 -15 8 -14 91 1 118 7 12 11 51
10 87 -3 78 8 141 49 280 40 131 84 245 111 282 36 51 122 96 186 97 26 1 50
-11 102 -51z m-4236 -47 l28 -29 56 19 c68 23 70 23 110 -1 l32 -20 -31 -62
c-38 -77 -34 -72 -55 -60 -12 7 -25 7 -37 0 -15 -8 -20 -5 -24 11 -4 16 -11
19 -32 15 -21 -4 -34 3 -68 38 -42 42 -42 44 -31 81 6 20 14 37 18 37 3 0 19
-13 34 -29z m-996 -8 c29 -18 177 -25 264 -11 35 5 83 12 108 15 25 3 50 9 56
14 7 6 16 3 24 -7 26 -31 69 -44 141 -44 70 0 72 0 122 -46 69 -62 167 -118
287 -165 l101 -40 80 43 c45 23 121 73 170 110 49 36 91 63 94 58 3 -5 27 -66
54 -137 26 -70 70 -175 96 -233 26 -58 71 -159 101 -225 30 -66 66 -142 81
-170 14 -27 80 -158 145 -290 66 -132 144 -280 173 -330 29 -49 58 -108 65
-130 7 -22 16 -47 21 -55 5 -8 22 -40 37 -70 97 -186 130 -246 241 -440 105
-181 201 -366 201 -385 0 -3 -22 6 -50 20 -27 14 -60 25 -72 25 -13 0 -37 9
-54 19 -26 16 -55 20 -165 23 -152 3 -178 14 -215 85 -32 63 -88 143 -101 143
-6 0 -14 -4 -18 -9 -3 -6 -16 -6 -33 -1 -15 5 -52 11 -82 15 -30 3 -86 15
-125 26 -76 20 -111 18 -217 -14 -46 -15 -48 -14 -73 10 -14 14 -33 53 -43 86
l-17 59 -160 50 c-88 27 -177 60 -198 74 -21 13 -61 29 -89 34 -28 6 -67 14
-87 19 -20 5 -55 15 -78 21 l-43 11 0 54 c0 48 3 56 31 78 25 20 30 30 27 58
l-3 34 -65 -3 c-36 -2 -99 -7 -141 -12 -123 -15 -253 24 -264 78 -15 68 -48
77 -139 36 -41 -18 -84 -29 -132 -32 -68 -4 -72 -3 -128 33 -41 28 -62 50 -75
81 -25 56 -98 134 -125 134 -39 -1 -104 -38 -180 -104 l-75 -66 -80 0 -80 0
-61 75 c-34 41 -68 75 -75 75 -8 0 -37 -5 -64 -11 -46 -10 -53 -15 -80 -63
-37 -64 -61 -86 -102 -95 -29 -6 -35 -14 -61 -83 -38 -95 -62 -111 -113 -72
-19 14 -37 38 -40 55 -6 27 1 39 68 118 90 104 113 166 92 239 -13 42 -13 42
20 62 43 27 99 89 124 139 39 75 72 212 77 309 3 74 8 99 24 119 14 18 20 41
20 73 0 43 3 50 38 76 20 15 40 32 43 37 4 5 10 64 13 131 4 66 9 135 12 152
l6 31 136 6 c150 6 400 45 447 70 17 8 39 24 49 36 16 17 26 20 55 15 20 -3
46 -13 59 -21z m3212 -199 c0 -25 -67 -81 -113 -93 -25 -7 -50 -10 -56 -7 -20
13 -71 94 -71 114 0 25 -23 44 -43 37 -20 -8 -37 43 -37 117 l0 58 160 -107
c88 -58 160 -112 160 -119z m-4200 134 c88 -23 100 -31 100 -68 0 -33 -19 -43
-65 -34 -27 5 -35 2 -44 -15 -14 -25 -38 -27 -77 -6 -36 18 -42 18 -75 1 -81
-42 -117 41 -56 127 19 28 21 28 81 22 33 -4 95 -16 136 -27z m8307 -168 c145
-212 139 -202 116 -193 -10 4 -46 36 -80 72 -59 61 -109 101 -125 101 -5 0 -8
-29 -8 -65 0 -36 -3 -65 -7 -65 -5 1 -33 14 -63 29 l-55 29 43 13 c48 14 54
38 12 50 -25 7 -25 7 3 8 32 1 87 30 87 46 0 5 -13 35 -30 65 -27 50 -42 117
-21 95 4 -6 62 -89 128 -185z m-9261 35 c22 -19 75 -53 119 -76 147 -76 328
-206 258 -185 -10 3 -66 17 -126 32 l-107 27 -55 -37 c-30 -20 -57 -36 -60
-36 -11 0 -36 50 -44 91 -5 24 -16 76 -25 116 -13 61 -14 103 -1 103 2 0 20
-16 41 -35z m-238 -108 c3 -36 4 -37 53 -43 48 -6 49 -7 49 -42 0 -19 -8 -44
-17 -54 -11 -12 -16 -32 -14 -54 l3 -34 -62 0 -62 0 15 23 c8 12 25 22 37 22
12 0 31 13 43 29 l21 29 -40 -5 c-21 -3 -48 -1 -60 4 -14 7 -32 5 -59 -6 -47
-20 -48 -20 -35 3 7 13 7 28 0 46 -16 41 -11 43 19 8 27 -33 28 -33 72 -20
l44 13 -32 17 c-38 20 -39 24 -16 72 21 43 37 40 41 -8z m1018 -76 c48 -22 63
-35 68 -57 4 -15 16 -39 27 -52 31 -40 27 -167 -7 -235 -15 -29 -28 -54 -30
-56 -2 -2 -37 12 -78 33 -70 34 -80 43 -159 148 -78 102 -84 113 -76 141 17
61 81 107 149 107 29 0 67 -10 106 -29z m4482 -79 c24 -18 24 -21 20 -173 -3
-141 -6 -160 -31 -219 -58 -138 -156 -286 -267 -404 -58 -62 -285 -256 -299
-256 -5 0 -15 9 -22 21 -13 20 -15 18 -43 -29 -20 -35 -41 -55 -72 -71 -35
-17 -44 -18 -44 -6 0 28 41 123 61 141 12 10 37 46 56 79 23 39 80 103 165
184 141 135 168 175 168 248 0 39 5 52 31 79 29 30 31 35 20 65 -10 29 -8 37
14 69 14 20 25 45 25 57 0 30 36 71 70 78 26 6 29 10 24 32 -5 20 2 33 42 74
26 27 51 49 54 49 3 0 16 -9 28 -18z m-433 -89 c-5 -52 -3 -73 8 -88 11 -15
12 -23 3 -38 -8 -15 -8 -21 2 -24 10 -4 6 -13 -14 -34 l-28 -29 23 -24 c27
-29 30 -22 -67 -145 -75 -94 -75 -94 -54 -111 21 -17 21 -18 -39 -99 -39 -52
-59 -87 -55 -97 3 -9 -3 -37 -15 -62 -20 -45 -22 -46 -32 -24 -11 24 -20 27
-46 13 -17 -9 -17 -7 -4 42 7 28 13 66 13 85 0 19 19 72 45 125 24 51 47 105
51 120 6 27 5 28 -22 21 l-29 -7 28 27 c21 19 39 26 68 26 35 0 39 2 39 26 0
20 -4 25 -16 20 -38 -15 -64 -18 -64 -7 0 5 14 32 30 58 17 26 30 54 30 63 0
10 16 33 35 53 19 20 35 45 35 56 0 11 11 28 25 37 13 9 30 31 37 50 6 19 14
34 16 34 2 0 1 -30 -3 -67z m-5190 37 c4 -13 15 -20 33 -20 l27 -1 -24 -19
c-30 -26 -38 -25 -54 5 l-13 25 -42 -36 c-34 -29 -42 -32 -42 -17 0 10 9 33
20 51 16 26 26 32 54 32 26 0 36 -5 41 -20z m6930 -12 c3 -18 8 -78 11 -133 3
-55 7 -118 9 -140 3 -44 36 -177 59 -242 13 -38 13 -43 -4 -58 -22 -20 -19
-27 -45 105 -8 41 -19 93 -24 115 -19 80 -31 188 -31 285 0 98 13 134 25 68z
m-6448 -21 c-20 -18 -37 -37 -37 -44 0 -19 35 -33 83 -33 35 0 48 5 69 28 14
16 29 40 34 54 l9 26 68 -23 c85 -29 99 -41 120 -107 9 -29 37 -87 62 -130 32
-54 53 -105 70 -175 28 -112 30 -152 10 -208 -8 -22 -15 -49 -15 -61 0 -13
-16 -32 -44 -52 -64 -46 -120 -44 -228 7 -49 23 -118 46 -169 55 -84 16 -88
16 -233 -9 -117 -21 -169 -25 -250 -21 -215 10 -303 35 -375 106 -26 27 -29
34 -18 51 7 11 23 19 40 19 39 0 70 23 127 96 27 35 64 71 81 80 29 15 34 15
69 -1 36 -16 41 -16 84 0 l46 18 0 51 c0 62 -11 76 -64 77 l-41 1 54 24 c35
16 63 23 81 19 19 -4 31 0 45 15 18 19 18 20 -1 20 -10 0 -26 5 -34 10 -13 8
-13 11 1 26 15 15 19 14 50 -1 24 -13 47 -16 87 -12 55 6 80 19 170 92 24 19
53 35 65 35 19 -1 18 -5 -16 -33z m-587 -114 c0 -10 -11 -36 -25 -58 l-24 -40
-1 46 c0 45 13 69 37 69 7 0 13 -8 13 -17z m-354 -152 c62 -28 66 -42 38 -125
-13 -38 -30 -73 -36 -77 -7 -4 -34 -11 -60 -14 -124 -17 -107 -87 51 -205 l34
-26 -17 -32 c-19 -36 -26 -38 -64 -18 -71 37 -115 135 -128 286 -5 61 -4 69
31 135 54 102 73 112 151 76z m10471 -383 c-2 -13 -4 -3 -4 22 0 25 2 35 4 23
2 -13 2 -33 0 -45z m-2963 -18 c8 -24 14 -46 12 -47 -2 -2 -15 2 -30 8 -23 11
-26 18 -26 63 0 44 2 48 14 36 8 -8 22 -35 30 -60z m-6572 -121 c67 -17 53
-29 -34 -29 -128 -1 -244 -30 -386 -100 -68 -33 -129 -60 -137 -60 -7 0 -52
-41 -99 -91 l-86 -92 0 50 c0 44 3 51 30 66 25 15 28 21 20 38 -9 15 -6 26 16
54 31 41 28 50 -12 35 l-29 -10 24 18 c20 16 22 22 12 41 -7 12 -9 35 -6 52 8
34 9 34 165 18 89 -9 129 -8 265 9 158 19 185 19 257 1z m1599 -139 c7 -25 23
-60 37 -79 29 -39 107 -78 175 -87 40 -6 55 -2 119 31 40 20 94 45 120 56 l47
18 16 -50 c10 -28 24 -53 34 -56 9 -3 28 -17 42 -30 33 -31 119 -54 157 -43
15 5 43 13 63 19 19 6 48 11 63 11 26 0 28 -2 22 -32 -18 -93 -17 -113 3 -145
33 -52 62 -65 169 -73 83 -6 112 -13 200 -50 56 -24 125 -62 153 -83 29 -22
73 -44 100 -50 l49 -12 0 -66 c0 -58 -14 -129 -26 -129 -5 0 -78 80 -82 89 -1
4 12 15 29 25 l31 18 -31 19 c-17 10 -34 19 -36 19 -3 0 -5 -16 -5 -36 l0 -36
-42 31 c-28 21 -54 31 -77 31 l-34 0 24 -26 c13 -14 37 -34 54 -44 25 -15 35
-33 53 -96 l23 -76 -37 -54 c-45 -65 -67 -69 -134 -24 -25 16 -48 30 -51 30
-4 0 -9 -16 -11 -36 -4 -35 -1 -39 54 -82 78 -61 95 -91 107 -192 l11 -84 -48
-49 c-26 -26 -59 -51 -74 -54 -15 -3 -48 -27 -73 -54 -39 -42 -45 -54 -45 -91
0 -41 21 -88 39 -88 9 0 37 60 34 71 -1 3 22 27 52 53 l54 46 57 -56 c32 -31
68 -63 81 -71 20 -13 23 -24 23 -78 0 -61 1 -64 38 -93 55 -44 111 -69 214
-98 51 -14 122 -35 158 -46 36 -11 70 -21 76 -23 8 -2 6 -20 -7 -57 -34 -98
-23 -148 45 -196 34 -25 61 -33 149 -46 59 -9 109 -16 112 -16 2 0 18 -25 35
-55 47 -81 80 -89 360 -83 288 6 285 7 304 -48 9 -26 11 -46 5 -49 -19 -12 -8
-36 33 -65 39 -28 46 -30 138 -30 98 0 303 35 348 59 12 6 45 9 76 7 49 -4 63
-11 125 -61 75 -60 229 -130 263 -119 13 4 37 -11 81 -51 109 -99 252 -183
480 -280 48 -21 87 -41 87 -46 0 -4 -16 -21 -35 -36 -46 -36 -107 -146 -99
-177 17 -71 -366 -502 -613 -689 -149 -113 -193 -139 -210 -125 -11 9 -10 15
7 32 18 20 19 27 9 86 -11 64 -50 140 -72 140 -6 0 -29 -17 -50 -37 -24 -23
-41 -33 -44 -26 -10 28 -46 63 -63 63 -22 0 -44 -35 -34 -53 4 -6 15 -21 26
-33 17 -19 17 -24 4 -60 -18 -53 -7 -81 38 -90 28 -5 36 -11 36 -27 0 -24 27
-57 48 -57 25 0 -4 -26 -61 -55 -71 -35 -85 -33 -89 13 -3 37 -4 37 -50 40
-29 2 -59 -3 -78 -13 -17 -9 -35 -13 -40 -10 -5 3 -27 -3 -49 -15 -22 -11 -56
-20 -75 -20 -43 0 -66 -22 -66 -64 0 -46 25 -64 90 -68 l55 -3 -73 -23 c-80
-25 -222 -55 -230 -48 -2 3 14 14 36 25 23 11 48 31 56 43 16 22 15 23 -32 33
-26 6 -54 15 -61 19 -8 6 -22 -3 -41 -25 -28 -34 -28 -34 -114 -34 -47 0 -86
-2 -86 -4 0 -3 12 -18 27 -33 l27 -28 -76 0 c-42 0 -89 5 -105 11 -17 7 -83
11 -168 10 -77 -1 -174 3 -215 9 -41 6 -116 15 -167 20 -51 5 -111 17 -135 25
-24 9 -65 22 -93 29 -27 7 -68 22 -91 34 -42 21 -289 96 -359 107 -22 4 -69
18 -105 32 -50 19 -71 34 -93 64 -15 22 -43 47 -62 56 -35 16 -35 16 -63 -10
l-27 -26 -95 47 c-111 56 -123 72 -52 72 47 0 51 2 61 31 18 51 -21 89 -123
120 l-69 22 -18 -24 c-25 -32 -24 -36 11 -54 27 -14 70 -67 70 -87 0 -11 -82
21 -120 47 -19 13 -55 33 -80 44 -103 45 -396 204 -412 223 -12 13 -18 37 -18
66 l0 46 33 -32 c35 -34 74 -42 83 -17 8 19 -23 160 -43 200 -22 43 -109 148
-143 174 -17 12 -42 26 -57 32 -16 6 -56 29 -91 51 l-63 41 -33 -32 -32 -31
-22 23 c-17 18 -20 30 -15 60 5 36 5 37 -26 37 -39 0 -174 44 -217 71 -31 19
-31 19 -52 -4 l-21 -23 32 -63 c18 -35 47 -75 65 -89 l32 -25 0 26 c0 41 10
57 36 57 25 0 104 -35 104 -46 0 -3 -13 -19 -30 -34 -35 -33 -37 -58 -10 -114
18 -37 25 -43 84 -59 51 -15 68 -17 86 -7 17 9 29 9 47 1 19 -9 29 -9 39 0 12
9 18 8 29 -7 32 -42 10 -62 -49 -46 -34 10 -36 9 -42 -14 -8 -31 22 -70 41
-54 9 7 22 -5 50 -47 l37 -56 -58 33 c-108 60 -278 179 -339 236 -33 30 -89
76 -125 102 -119 84 -194 146 -325 267 -71 67 -150 133 -175 147 -60 36 -246
226 -254 260 -4 16 -44 65 -94 115 -94 94 -155 175 -220 289 -22 40 -49 81
-61 93 -11 11 -21 26 -21 32 0 12 13 9 68 -13 30 -12 35 -11 48 6 8 11 14 35
14 53 0 49 16 40 31 -17 13 -53 18 -56 50 -40 16 9 19 21 19 78 -1 65 -2 68
-44 114 l-44 48 -25 -33 -24 -32 -8 33 c-11 52 -85 73 -85 23 0 -10 -12 -26
-26 -36 -23 -15 -26 -22 -21 -56 3 -21 2 -39 -1 -39 -8 0 -161 333 -157 338 2
2 13 -1 24 -7 18 -10 24 -6 51 30 26 37 30 50 30 108 0 49 -5 72 -19 90 -18
24 -20 24 -45 8 -14 -9 -30 -26 -37 -38 -6 -12 -15 -17 -20 -12 -20 20 -32
201 -24 387 l7 188 63 127 c67 135 89 163 179 225 67 46 98 53 281 65 176 12
230 28 298 89 58 52 87 69 197 111 l75 29 5 52 c4 42 10 56 30 69 20 14 23 14
18 1 -3 -8 -9 -22 -13 -31 -5 -13 2 -20 29 -29 20 -6 36 -17 36 -23 0 -7 8 -2
18 9 9 12 36 31 58 43 39 19 77 52 106 94 13 17 16 16 55 -18 82 -70 188 -55
291 40 31 29 84 71 117 94 l59 42 22 -43 c12 -24 28 -63 35 -88z m-621 77 c0
-13 -13 -36 -30 -52 -23 -22 -34 -26 -49 -19 -19 9 -19 10 6 52 18 31 31 42
49 42 18 0 24 -5 24 -23z m-935 -57 c13 -5 28 -23 34 -42 16 -49 112 -97 209
-105 57 -5 71 -9 75 -24 7 -25 24 -24 38 3 l12 21 13 -24 c32 -58 4 -68 -94
-34 -71 25 -162 34 -162 16 0 -20 13 -41 25 -41 6 0 20 -9 30 -20 19 -21 60
-27 70 -11 5 8 95 -43 95 -54 0 -2 3 -10 6 -19 9 -25 -19 -20 -83 14 -78 41
-190 64 -273 55 -187 -18 -427 -143 -521 -272 -56 -76 -100 -123 -115 -123
-20 0 -44 41 -44 73 0 23 3 27 13 19 9 -8 23 -8 47 1 53 18 58 24 92 90 17 34
43 76 58 94 16 17 31 50 35 72 6 37 10 41 36 41 26 0 29 4 29 30 0 27 -3 30
-30 30 -26 0 -30 -4 -30 -26 0 -22 -3 -24 -22 -18 -33 10 -33 11 -15 49 16 34
16 35 -6 40 -13 4 -34 2 -49 -4 -23 -9 -25 -8 -20 11 11 43 179 124 317 153
44 9 82 19 85 21 7 8 115 -5 145 -16z m-570 -231 c-3 -30 -14 -52 -44 -85 -33
-35 -41 -40 -41 -23 0 30 68 149 85 149 2 0 2 -18 0 -41z m7597 -222 c30 -34
94 -116 143 -182 125 -170 168 -217 273 -302 50 -42 92 -79 92 -83 0 -12 134
-150 146 -150 6 0 21 -12 35 -26 13 -14 61 -53 107 -87 58 -43 81 -66 77 -77
-24 -61 -29 -102 -17 -147 12 -42 11 -49 -4 -60 -10 -7 -38 -13 -63 -13 -45 1
-48 3 -182 133 -108 106 -146 150 -189 222 -29 50 -105 161 -167 248 -63 86
-127 185 -143 220 -15 34 -55 103 -87 152 -59 90 -133 217 -133 228 0 3 13 1
29 -4 15 -6 53 -38 83 -72z m-3230 -453 c33 -61 86 -108 146 -129 26 -9 101
-21 167 -25 184 -13 237 -33 353 -135 l95 -84 199 -358 c110 -197 215 -386
234 -420 l34 -61 -71 36 -72 37 -172 3 -172 4 -55 43 c-30 24 -73 70 -94 104
-25 39 -46 60 -59 60 -10 1 -37 19 -60 40 -38 38 -46 41 -174 65 -112 22 -146
33 -215 70 -88 48 -128 86 -168 156 -38 66 -79 115 -141 165 -46 39 -60 45
-99 45 -60 0 -122 23 -164 60 -19 16 -39 30 -44 30 -6 0 -10 6 -10 13 0 7 -9
29 -20 50 -11 20 -20 47 -20 60 0 30 61 119 105 152 46 36 150 68 195 61 20
-3 49 -1 65 4 17 5 66 8 110 6 l80 -2 27 -50z m3491 -183 c25 -42 6 -39 -32 4
-38 43 -44 81 -8 47 12 -11 30 -35 40 -51z m109 -153 c13 -19 15 -26 5 -22
-13 5 -42 40 -62 74 -13 23 34 -21 57 -52z m151 -191 c33 -26 67 -73 67 -94 0
-10 -87 75 -113 111 -23 33 -13 29 46 -17z m-4308 -54 c95 -19 240 -66 278
-91 20 -14 71 -66 113 -116 127 -153 179 -177 332 -151 105 18 221 14 278 -10
44 -18 104 -74 166 -155 64 -84 84 -91 283 -95 185 -4 217 -12 304 -84 25 -20
76 -57 114 -82 74 -50 74 -51 -6 -65 -35 -6 -41 -3 -91 44 -29 27 -72 60 -97
72 -24 13 -56 31 -70 41 -24 17 -30 17 -85 3 -32 -9 -89 -29 -126 -46 -62 -28
-70 -30 -100 -17 -48 20 -96 67 -123 119 -50 99 -218 210 -317 210 -30 0 -65
-8 -90 -21 -65 -33 -143 -57 -206 -64 l-57 -7 -50 68 c-79 108 -172 201 -279
281 -83 61 -105 73 -138 73 -56 0 -133 42 -146 79 -6 16 -20 34 -31 41 -12 6
-21 17 -21 24 0 9 17 5 58 -14 31 -15 80 -32 107 -37z m1770 -29 c289 -146
585 -487 674 -778 28 -92 28 -106 -4 -76 -13 13 -27 31 -30 40 -14 43 -163 78
-215 50 -39 -21 -135 76 -247 250 -50 79 -303 551 -303 567 0 5 58 -20 125
-53z m2739 -136 c43 -49 80 -88 84 -88 3 0 19 12 34 27 24 23 28 24 28 8 0
-10 -10 -33 -22 -51 l-22 -32 -41 28 c-75 51 -185 178 -185 212 0 21 53 -24
124 -104z m-4418 -54 c122 -60 248 -179 347 -327 l32 -48 110 5 c61 3 137 10
170 16 80 15 210 23 238 16 35 -8 104 -82 173 -186 96 -143 86 -134 131 -120
21 7 47 20 58 30 39 35 110 63 170 67 54 4 65 2 107 -26 26 -16 70 -59 98 -95
58 -74 73 -79 134 -42 l38 24 35 -20 c55 -33 140 -115 209 -204 35 -45 64 -85
64 -89 0 -15 -147 74 -194 118 l-51 49 -110 -4 c-96 -4 -120 -8 -190 -37 -59
-24 -101 -34 -160 -38 -105 -7 -108 -3 -84 101 21 86 18 99 -30 118 -14 5
-166 9 -344 9 l-320 0 -33 25 -33 26 22 39 c21 36 21 39 5 55 -16 16 -22 15
-97 -6 -79 -23 -82 -23 -136 -6 -46 14 -58 23 -74 54 -28 55 -33 94 -20 146 9
37 9 49 -2 63 -19 22 -113 63 -147 63 -45 0 -125 27 -237 81 l-104 50 18 47
c10 26 21 55 24 65 12 31 99 23 183 -19z m2287 -713 c30 -33 59 -73 65 -91 13
-35 14 -35 -59 17 -37 26 -56 33 -94 33 -46 0 -85 19 -85 41 0 10 88 58 106
59 7 0 37 -27 67 -59z m642 -220 c-3 -6 -25 -21 -48 -33 -23 -11 -57 -34 -77
-50 -19 -16 -77 -47 -129 -69 -80 -33 -105 -39 -167 -39 -59 0 -75 3 -83 18
-9 15 2 18 117 34 127 16 127 16 257 87 123 67 145 76 130 52z m-665 -92 c0
-15 -19 -10 -40 11 -31 31 -24 44 10 20 17 -12 30 -26 30 -31z m517 -127 c-19
-20 -27 -39 -27 -65 0 -43 3 -44 48 -17 18 11 35 20 37 20 3 0 -11 -32 -30
-70 -20 -39 -39 -69 -43 -67 -4 2 -70 42 -146 88 l-139 84 89 11 c49 6 102 17
117 24 22 11 33 11 47 3 14 -9 22 -9 36 2 32 25 39 16 11 -13z m104 -171 c-17
-26 -31 -54 -31 -62 0 -10 -4 -10 -16 3 -15 15 -13 21 27 79 52 73 69 57 20
-20z m-4571 -1234 c0 -18 7 -42 15 -54 13 -18 13 -24 -2 -53 -13 -28 -15 -56
-10 -186 4 -98 2 -165 -5 -186 -6 -18 -14 -139 -19 -268 -10 -287 -18 -376
-35 -391 -9 -8 -49 14 -161 89 -82 55 -167 109 -191 121 -23 12 -42 23 -42 24
0 2 31 65 69 140 38 75 92 196 121 269 29 73 72 169 96 213 23 44 55 114 69
155 33 91 75 171 86 164 5 -3 9 -20 9 -37z"/>
<path d="M3976 13651 c-38 -42 8 -106 53 -75 17 12 21 24 19 52 -3 31 -7 37
-29 40 -15 2 -32 -5 -43 -17z"/>
<path d="M3265 13540 l-29 -30 37 0 c41 0 48 7 40 38 -7 29 -14 28 -48 -8z"/>
<path d="M2924 13464 c-39 -23 -43 -29 -54 -90 -12 -62 -11 -67 7 -86 26 -26
52 -14 93 44 32 44 38 89 18 133 -14 30 -13 30 -64 -1z"/>
<path d="M3102 13437 c-26 -28 -27 -40 -6 -58 14 -11 20 -9 41 15 42 50 9 90
-35 43z"/>
<path d="M4548 13663 c-35 -14 -38 -18 -38 -54 l0 -39 35 17 c34 16 51 45 43
76 -3 13 -7 13 -40 0z"/>
<path d="M4326 13521 l-70 -70 28 -10 c67 -26 69 -25 130 38 69 73 73 104 16
109 -32 3 -42 -4 -104 -67z"/>
<path d="M4480 13480 c-22 -47 -22 -50 -6 -75 22 -33 48 -32 69 5 10 17 14 30
9 30 -5 0 -15 20 -22 45 -7 25 -16 45 -20 45 -3 0 -17 -22 -30 -50z"/>
<path d="M4343 13399 c-41 -19 -43 -22 -43 -63 0 -39 3 -45 30 -56 29 -12 33
-11 62 16 17 16 36 43 43 59 12 26 11 33 -2 48 -20 21 -37 21 -90 -4z"/>
<path d="M4799 13223 c-80 -41 -140 -137 -125 -198 9 -35 24 -31 73 17 32 32
46 39 54 31 16 -16 73 14 117 60 l34 35 -26 41 c-32 50 -51 52 -127 14z"/>
<path d="M4146 13115 c-27 -28 -20 -45 20 -45 33 0 35 2 32 27 -4 33 -29 41
-52 18z"/>
<path d="M5098 13063 c-13 -16 -13 -22 -2 -50 13 -29 18 -33 54 -33 39 0 40 1
40 33 0 25 -6 36 -29 50 -36 21 -44 21 -63 0z"/>
<path d="M4240 12985 c-39 -60 -42 -71 -51 -162 -4 -54 -8 -106 -9 -115 0 -35
41 -18 101 40 l60 57 14 100 c8 55 15 104 15 108 0 8 -61 37 -79 37 -5 0 -28
-29 -51 -65z"/>
<path d="M4928 12888 l-27 -42 27 -38 c27 -38 45 -47 57 -28 4 6 32 -8 67 -32
l61 -41 19 23 c21 26 23 87 4 113 -9 11 -27 17 -55 17 -33 0 -49 7 -80 35 -21
19 -40 35 -42 35 -2 0 -16 -19 -31 -42z"/>
<path d="M4676 12864 c-31 -56 -32 -60 -7 -74 60 -32 151 5 151 61 0 27 -2 29
-21 18 -17 -9 -26 -7 -48 8 -47 35 -48 35 -75 -13z"/>
<path d="M4106 12799 c-26 -20 -26 -22 -10 -40 24 -27 38 -24 51 12 20 52 3
63 -41 28z"/>
<path d="M5126 12691 c-4 -5 -24 -12 -47 -16 -46 -8 -57 -25 -40 -61 10 -23
14 -24 63 -18 75 9 82 17 58 65 -22 41 -25 45 -34 30z"/>
<path d="M3975 12651 c-17 -39 -17 -39 10 -85 15 -25 30 -44 34 -42 4 3 16 30
26 60 15 44 17 60 7 80 -18 41 -55 35 -77 -13z"/>
<path d="M4990 12518 c-36 -38 -35 -38 -10 -86 35 -66 33 -65 74 -48 l37 15
-3 73 -3 73 -32 3 c-27 3 -39 -3 -63 -30z"/>
<path d="M4834 12459 c-16 -33 -13 -62 10 -92 13 -17 16 -17 45 -2 27 14 31
20 31 59 0 40 -3 45 -31 55 -18 6 -33 11 -35 11 -2 0 -11 -14 -20 -31z"/>
<path d="M5800 12340 c0 -38 2 -40 30 -40 28 0 30 2 30 40 0 38 -2 40 -30 40
-28 0 -30 -2 -30 -40z"/>
<path d="M4166 12322 c-13 -15 -16 -33 -14 -73 l3 -54 40 0 40 0 0 70 c0 68
-1 70 -26 73 -15 2 -32 -5 -43 -16z"/>
<path d="M4756 12234 l-26 -39 33 -16 32 -17 3 45 c4 64 -10 73 -42 27z"/>
<path d="M6331 12233 c18 -21 35 -39 36 -42 1 -2 19 0 40 4 l38 7 -39 34 c-29
25 -49 34 -75 34 l-35 0 35 -37z"/>
<path d="M6460 12264 c0 -11 41 -64 50 -64 12 0 18 36 8 54 -8 15 -58 24 -58
10z"/>
<path d="M6615 12218 c-11 -6 -22 -13 -24 -15 -6 -4 61 -62 72 -63 12 0 8 65
-5 78 -14 14 -17 14 -43 0z"/>
<path d="M6651 12101 l-55 -28 46 -21 c82 -36 82 -36 102 4 16 34 16 38 0 55
-22 24 -28 24 -93 -10z"/>
<path d="M6649 11956 c83 -84 84 -84 109 -68 l24 16 -28 20 c-16 12 -48 38
-73 59 -42 37 -79 57 -104 57 -6 0 26 -38 72 -84z"/>
<path d="M6945 11903 c30 -78 32 -80 47 -65 19 19 -35 132 -63 132 -5 0 3 -30
16 -67z"/>
<path d="M4446 11894 c-8 -21 -7 -36 3 -53 7 -11 16 -11 55 4 37 14 46 22 46
41 0 28 -3 29 -30 12 -16 -10 -24 -10 -40 0 -25 15 -27 15 -34 -4z"/>
<path d="M4256 11846 c-31 -34 -46 -83 -46 -153 0 -51 1 -53 39 -72 l39 -20
26 39 c21 33 26 51 26 105 0 40 -4 64 -10 60 -5 -3 -18 11 -28 32 l-19 37 -27
-28z"/>
<path d="M4465 11781 c-49 -30 -63 -45 -75 -79 -13 -37 -13 -44 1 -57 24 -25
63 -2 83 48 15 38 17 40 32 25 16 -15 15 -20 -15 -66 -34 -54 -38 -77 -17
-126 21 -50 32 -52 87 -15 l49 34 0 59 c0 47 -5 65 -21 82 -19 20 -20 27 -10
55 16 46 14 54 -14 67 -34 16 -31 16 -100 -27z"/>
<path d="M6937 11738 c18 -31 81 -73 92 -62 7 7 -86 94 -100 94 -6 0 -2 -15 8
-32z"/>
<path d="M4642 11491 l-33 -17 41 -37 c48 -43 75 -49 64 -14 -4 12 -7 29 -6
39 0 9 -7 23 -16 31 -15 14 -21 13 -50 -2z"/>
<path d="M4350 11485 c-11 -13 -10 -18 6 -30 38 -28 63 -13 38 23 -18 26 -27
27 -44 7z"/>
<path d="M4610 11356 c0 -71 88 -186 143 -186 19 0 43 -12 66 -32 l36 -32 3
60 3 59 -54 51 c-52 49 -116 86 -171 100 -23 5 -26 3 -26 -20z"/>
<path d="M4436 11333 l-27 -14 20 -32 c24 -38 44 -44 76 -23 33 22 31 37 -8
62 -30 20 -36 20 -61 7z"/>
<path d="M4266 11294 c-6 -16 28 -74 44 -74 8 0 5 42 -6 78 -5 17 -31 15 -38
-4z"/>
<path d="M4675 11139 c-4 -6 7 -28 24 -49 39 -49 39 -70 1 -99 l-30 -22 27
-34 c34 -42 77 -47 130 -13 34 20 35 23 31 68 -5 53 -28 87 -85 131 -39 29
-86 38 -98 18z"/>
<path d="M7787 13332 c-10 -11 -14 -26 -10 -40 5 -22 7 -22 24 -6 19 17 27 64
11 64 -5 0 -16 -8 -25 -18z"/>
<path d="M8280 13441 c0 -12 9 -21 26 -25 33 -9 39 -3 24 23 -14 27 -50 28
-50 2z"/>
<path d="M8483 13368 c-85 -88 -108 -121 -99 -144 9 -23 55 -17 62 9 4 12 36
49 71 82 l64 60 48 -50 c26 -28 50 -56 52 -63 3 -9 16 -12 33 -10 l29 3 -82
98 c-46 53 -86 97 -90 97 -4 0 -44 -37 -88 -82z"/>
<path d="M8931 13416 c-34 -35 -35 -64 -3 -47 12 6 26 5 42 -5 38 -20 39 -18
22 36 -9 28 -19 50 -22 50 -3 0 -21 -15 -39 -34z"/>
<path d="M8204 13328 c-39 -26 -52 -42 -63 -77 -13 -42 -13 -45 9 -63 42 -34
84 -17 56 24 -14 19 -13 24 5 50 11 15 24 28 28 28 4 0 16 -18 26 -40 23 -50
51 -56 40 -7 -4 17 -9 44 -10 59 -2 27 -21 58 -35 58 -4 0 -30 -15 -56 -32z"/>
<path d="M8900 13286 c0 -10 7 -30 15 -46 13 -25 22 -30 50 -30 19 0 35 3 35
8 0 17 -41 72 -54 72 -8 0 -21 3 -30 6 -11 4 -16 1 -16 -10z"/>
<path d="M9327 13273 c-16 -16 -4 -23 40 -23 l47 0 -27 -28 c-24 -25 -35 -52
-22 -52 11 0 75 46 79 56 9 23 -33 54 -73 54 -21 0 -41 -3 -44 -7z"/>
<path d="M9082 13238 c-18 -18 -15 -32 18 -63 l30 -29 0 40 c0 36 -13 64 -30
64 -3 0 -11 -5 -18 -12z"/>
<path d="M7932 12948 c-50 -29 -53 -32 -46 -62 17 -76 90 -196 120 -196 36 0
36 58 0 128 -9 17 -16 44 -16 61 0 26 8 34 63 65 l62 36 -65 -1 c-54 0 -74 -5
-118 -31z"/>
<path d="M9973 13092 c-23 -20 -45 -49 -49 -64 -3 -16 -10 -28 -15 -28 -5 0
-20 -22 -33 -48 -13 -27 -35 -53 -48 -60 -20 -10 -17 -11 27 -9 l49 2 14 58
14 57 54 0 c39 0 56 4 60 15 8 20 -3 77 -19 98 -11 14 -16 12 -54 -21z"/>
<path d="M10220 13071 c0 -14 50 -51 70 -51 10 0 24 -10 32 -21 l14 -22 42 22
c23 12 42 23 42 24 0 2 -14 13 -31 26 -24 18 -33 20 -45 10 -11 -9 -18 -8 -32
5 -20 17 -92 23 -92 7z"/>
<path d="M10137 12992 c-15 -15 -27 -37 -27 -48 0 -31 35 -80 69 -93 26 -12
34 -11 56 3 40 26 34 71 -17 123 -23 24 -45 43 -48 43 -4 0 -18 -13 -33 -28z"/>
<path d="M10408 12936 c-17 -39 -4 -56 42 -56 l41 0 -28 40 c-33 46 -40 48
-55 16z"/>
<path d="M9947 12913 c-4 -3 -7 -16 -7 -28 0 -19 -10 -26 -57 -41 -51 -17 -58
-22 -61 -48 -6 -46 40 -86 97 -86 25 0 63 -4 83 -9 32 -8 39 -6 62 18 47 49
31 157 -25 187 -29 15 -81 19 -92 7z"/>
<path d="M10506 12831 c-12 -19 45 -147 88 -198 19 -23 32 -29 51 -25 14 2 25
5 25 7 0 19 -31 79 -57 109 -18 22 -33 45 -33 51 0 7 -9 24 -21 39 -21 26 -43
34 -53 17z"/>
<path d="M10149 12801 c-23 -19 -23 -20 -6 -55 19 -41 53 -48 81 -17 16 17 16
21 0 55 -20 41 -40 45 -75 17z"/>
<path d="M10300 12791 c0 -18 47 -77 80 -99 62 -42 95 -5 43 50 -39 42 -123
76 -123 49z"/>
<path d="M10027 12632 l-27 -28 25 -24 c25 -24 26 -24 45 -4 18 18 18 20 1 52
l-17 33 -27 -29z"/>
<path d="M9830 12038 c-107 -145 -110 -151 -80 -183 21 -22 32 -25 92 -25 59
0 74 -4 104 -26 19 -15 37 -24 40 -22 3 3 -5 26 -17 51 l-22 46 24 20 24 20
-46 1 c-26 0 -66 -7 -89 -15 -56 -20 -60 -19 -60 8 0 17 15 34 53 60 29 20 67
52 86 71 32 33 33 34 11 41 -18 6 -21 12 -16 36 11 56 -21 30 -104 -83z"/>
<path d="M9377 11745 l-27 -55 23 0 c29 0 84 65 62 74 -8 3 -15 12 -15 21 0
29 -16 14 -43 -40z"/>
<path d="M10040 11773 c-23 -30 -19 -36 41 -53 51 -15 62 -4 39 41 -24 47 -50
50 -80 12z"/>
<path d="M9852 11658 c-16 -16 -15 -70 2 -94 14 -18 17 -18 43 -3 22 12 28 22
26 47 -2 54 -41 80 -71 50z"/>
<path d="M9806 11361 c-51 -54 -79 -101 -101 -170 -7 -23 -7 -23 56 -19 52 3
75 11 124 40 33 20 72 40 87 43 27 7 45 36 33 54 -3 6 -23 5 -51 -4 l-46 -14
7 45 c5 37 4 44 -10 44 -12 0 -15 6 -10 20 13 40 -31 20 -89 -39z m66 -48 c10
-9 18 -20 18 -24 0 -8 -72 -49 -85 -49 -9 0 5 41 23 68 17 26 20 27 44 5z"/>
<path d="M12073 10785 c-6 -18 23 -55 43 -55 7 0 18 9 24 19 8 16 6 23 -12 35
-28 20 -47 20 -55 1z"/>
<path d="M12260 10390 c0 -6 7 -24 15 -40 8 -16 12 -37 8 -46 -4 -12 -3 -15 5
-10 8 5 12 -1 12 -18 0 -14 5 -26 10 -26 6 0 10 25 10 56 0 34 -4 53 -10 49
-6 -4 -10 5 -10 19 0 19 -5 26 -20 26 -11 0 -20 -5 -20 -10z"/>
<path d="M12186 9809 c-9 -47 -8 -49 24 -49 17 0 30 3 30 6 0 8 -40 74 -45 74
-1 0 -5 -14 -9 -31z"/>
<path d="M12316 9695 c-14 -13 -26 -28 -26 -32 0 -4 -7 -39 -15 -78 -19 -88
-8 -125 36 -125 15 0 31 5 35 12 5 7 10 4 15 -10 6 -16 17 -22 38 -22 27 0 30
4 47 67 l18 67 -52 46 c-38 34 -52 54 -52 73 0 33 -10 34 -44 2z"/>
<path d="M12142 9671 c-16 -53 -15 -64 8 -89 27 -29 32 -28 53 8 18 29 17 31
-8 75 -15 25 -30 45 -34 45 -4 0 -13 -17 -19 -39z"/>
<path d="M12260 9372 c0 -42 3 -50 30 -65 27 -16 30 -23 30 -68 0 -47 1 -49
29 -49 27 0 30 4 44 60 14 56 13 60 -4 76 -11 9 -19 27 -19 39 0 16 -11 25
-47 38 -27 9 -51 17 -55 17 -5 0 -8 -22 -8 -48z"/>
<path d="M12247 9172 c-10 -10 -17 -33 -17 -51 0 -27 5 -34 36 -47 20 -9 40
-12 44 -7 5 4 11 28 15 54 6 42 5 46 -20 57 -34 16 -39 15 -58 -6z"/>
<path d="M12277 8920 l-47 -30 0 -93 c0 -54 6 -115 15 -144 15 -52 92 -151
105 -136 4 4 17 34 29 65 16 44 18 64 11 84 -6 14 -10 37 -10 52 0 15 -9 43
-19 63 -14 26 -18 48 -14 76 3 25 0 50 -9 67 l-14 26 -47 -30z"/>
<path d="M12127 8820 c-19 -22 -40 -40 -48 -40 -8 0 -20 -4 -28 -9 -11 -7 -4
-12 26 -20 22 -6 48 -20 58 -31 14 -15 21 -17 31 -9 34 28 41 149 9 149 -7 0
-29 -18 -48 -40z"/>
<path d="M12110 8643 c0 -33 7 -46 50 -88 45 -45 51 -48 66 -34 14 15 14 21
-1 72 -15 54 -19 57 -58 68 -23 6 -45 13 -49 16 -5 2 -8 -13 -8 -34z"/>
<path d="M12214 8395 c-8 -31 11 -78 29 -73 21 8 20 62 -2 82 -20 18 -20 18
-27 -9z"/>
<path d="M12320 8359 c0 -39 19 -59 55 -59 43 0 46 20 10 55 -30 31 -65 33
-65 4z"/>
<path d="M12305 8197 c-14 -24 -25 -50 -25 -59 0 -8 -7 -35 -16 -61 -14 -41
-14 -50 -1 -76 10 -20 11 -33 4 -40 -20 -20 12 -41 63 -41 51 0 54 3 86 94 12
33 12 46 -2 95 -17 58 -57 131 -74 131 -5 0 -21 -20 -35 -43z"/>
<path d="M12673 8154 c-35 -29 -43 -42 -43 -69 0 -37 28 -65 65 -65 11 0 31 7
43 16 19 13 22 24 22 85 0 65 -1 69 -22 69 -13 0 -42 -16 -65 -36z"/>
<path d="M12453 7955 c-32 -46 -43 -55 -69 -55 -37 0 -57 -20 -56 -58 0 -15
-6 -34 -13 -42 -8 -8 -20 -43 -28 -77 l-14 -62 28 -27 28 -27 41 27 40 26 0
90 c0 80 2 90 21 100 11 7 28 9 36 6 14 -6 13 -10 -5 -29 -49 -52 -56 -127
-15 -169 15 -15 32 -28 39 -28 15 0 78 70 100 111 9 18 19 61 22 96 4 60 4 63
-22 74 -22 10 -26 17 -21 39 5 22 1 28 -30 43 -20 9 -38 17 -40 17 -2 0 -21
-25 -42 -55z"/>
<path d="M12596 8002 c-13 -13 -5 -62 11 -71 28 -15 55 14 41 44 -10 23 -41
39 -52 27z"/>
<path d="M12172 7878 c3 -38 6 -43 30 -46 22 -3 29 2 34 23 7 30 -18 65 -48
65 -16 0 -19 -6 -16 -42z"/>
<path d="M2377 10722 c-27 -29 -22 -103 7 -131 l24 -23 16 30 c22 42 21 105
-2 125 -23 21 -25 21 -45 -1z"/>
<path d="M8501 9704 c-17 -38 -8 -40 31 -5 l33 30 -26 1 c-18 0 -29 -8 -38
-26z"/>
<path d="M8412 9467 c-18 -18 -32 -41 -32 -50 0 -20 2 -20 33 -6 20 9 57 64
57 84 0 15 -31 0 -58 -28z"/>
<path d="M8419 9380 c-54 -28 -87 -56 -77 -66 5 -4 126 43 139 55 4 3 4 13 0
23 -5 14 -12 13 -62 -12z"/>
<path d="M8235 9120 c-16 -16 -23 -30 -16 -30 21 0 50 19 61 40 17 32 -11 25
-45 -10z"/>
<path d="M8103 9029 c-18 -5 -33 -16 -33 -24 0 -18 4 -18 52 -5 26 8 35 15 31
25 -6 17 -6 17 -50 4z"/>
<path d="M3550 9695 c0 -28 3 -33 18 -28 28 10 42 24 42 44 0 14 -7 19 -30 19
-28 0 -30 -3 -30 -35z"/>
<path d="M3342 9653 c-18 -9 -42 -27 -53 -41 l-20 -26 25 -24 24 -25 48 24
c60 30 93 71 74 94 -16 19 -56 19 -98 -2z"/>
<path d="M3448 9575 c-25 -14 -46 -50 -35 -61 7 -8 67 25 67 35 0 5 3 16 6 25
8 20 -3 20 -38 1z"/>
<path d="M4918 8935 c-28 -37 -24 -59 10 -52 43 9 82 26 82 36 0 17 -31 41
-53 41 -12 0 -30 -11 -39 -25z"/>
<path d="M5473 8764 c-51 -30 -93 -61 -93 -69 0 -23 19 -28 46 -10 28 18 130
29 139 14 4 -5 19 -9 36 -9 26 0 29 3 29 34 0 32 -40 97 -58 96 -4 -1 -49 -25
-99 -56z"/>
<path d="M4420 8780 c-31 -31 -25 -84 11 -88 54 -6 78 65 32 95 -19 13 -24 12
-43 -7z"/>
<path d="M4639 8770 c-32 -17 -97 -87 -88 -94 16 -14 53 -26 76 -26 30 0 64
28 97 82 16 25 16 27 -6 42 -28 20 -34 20 -79 -4z"/>
<path d="M5896 8674 c-25 -24 -20 -59 11 -73 40 -18 56 2 41 52 -12 40 -27 46
-52 21z"/>
<path d="M5743 8413 c-9 -16 -21 -34 -26 -40 -7 -10 1 -17 26 -28 43 -18 50
-19 42 -5 -3 6 7 18 24 28 34 19 36 24 21 53 -17 30 -66 25 -87 -8z"/>
<path d="M3618 8395 c-19 -16 -28 -34 -28 -55 l0 -30 39 19 c47 24 56 43 33
70 -17 20 -17 20 -44 -4z"/>
<path d="M3348 8353 c-59 -64 -64 -119 -17 -176 l32 -38 26 25 c22 21 37 26
77 26 42 0 55 5 77 28 44 46 37 83 -22 126 -40 30 -57 36 -98 36 -41 0 -54 -5
-75 -27z"/>
<path d="M5566 8299 c-17 -24 -22 -79 -8 -79 5 0 18 10 29 23 18 19 19 26 8
51 l-12 29 -17 -24z"/>
<path d="M3866 8245 c-16 -25 -16 -26 11 -36 53 -20 79 -21 93 -5 10 13 10 22
2 41 -9 20 -19 25 -51 25 -30 0 -42 -5 -55 -25z"/>
<path d="M4882 8187 c-21 -23 -29 -68 -16 -101 5 -12 17 -7 65 26 48 34 59 47
59 70 0 26 -3 28 -43 28 -33 0 -49 -6 -65 -23z"/>
<path d="M3767 8178 c-17 -6 -33 -23 -42 -45 -14 -33 -14 -38 1 -55 23 -24 39
-23 91 7 34 21 43 31 43 53 0 49 -31 63 -93 40z"/>
<path d="M6380 8116 l0 -75 -35 15 c-19 8 -35 10 -35 5 0 -17 40 -59 70 -71
27 -11 33 -10 51 6 22 19 22 22 -2 142 -8 41 -14 52 -30 52 -17 0 -19 -8 -19
-74z"/>
<path d="M3519 8143 c-34 -36 -59 -96 -59 -141 0 -32 70 -82 115 -82 20 0 34
4 31 8 -3 5 8 16 25 26 36 21 36 20 3 173 -4 20 -49 53 -71 53 -5 0 -25 -17
-44 -37z"/>
<path d="M3287 8022 c-42 -43 -47 -52 -47 -94 0 -54 13 -63 67 -45 55 18 77
64 74 155 -2 49 -36 43 -94 -16z"/>
<path d="M3221 7786 c-12 -18 -21 -37 -21 -42 0 -16 35 -94 42 -94 4 0 23 9
42 21 31 18 36 26 36 59 0 30 -6 44 -31 64 -17 14 -34 26 -39 26 -5 0 -18 -15
-29 -34z"/>
<path d="M3290 7251 c-15 -29 -12 -46 10 -66 20 -18 20 -17 20 33 0 54 -12 66
-30 33z"/>
<path d="M3590 6831 c0 -20 8 -35 22 -45 29 -21 35 -20 48 3 16 32 -7 71 -42
71 -24 0 -28 -4 -28 -29z"/>
<path d="M3492 6838 c-17 -17 -15 -38 8 -75 15 -26 26 -33 51 -33 27 0 30 2
19 15 -7 8 -9 22 -6 32 4 10 -3 26 -21 45 -30 32 -34 33 -51 16z"/>
<path d="M3626 6677 c-18 -13 -17 -15 9 -55 32 -48 50 -53 60 -15 5 21 0 32
-22 55 -25 25 -31 27 -47 15z"/>
<path d="M3820 6462 c0 -25 59 -114 71 -106 27 16 -18 124 -51 124 -13 0 -20
-7 -20 -18z"/>
<path d="M7900 6431 c0 -5 16 -35 35 -67 19 -32 35 -66 35 -75 0 -26 74 -84
131 -102 83 -27 227 -18 394 25 93 23 113 22 166 -11 28 -17 55 -31 60 -31 5
0 9 15 9 33 0 30 -5 35 -56 61 -63 32 -121 36 -177 13 -19 -8 -66 -22 -106
-31 -98 -22 -280 -13 -330 17 l-34 20 5 66 c3 36 4 72 1 79 -5 14 -133 17
-133 3z"/>
<path d="M4071 6236 c-20 -32 -21 -37 -7 -64 25 -49 249 -265 306 -296 46 -25
130 -51 130 -40 0 2 -16 29 -36 60 -39 61 -39 62 14 93 11 6 10 15 -4 44 -15
32 -22 36 -58 39 -37 3 -41 6 -39 28 4 47 -7 70 -45 95 -43 29 -133 61 -195
70 -43 7 -45 6 -66 -29z"/>
<path d="M4631 5969 c-11 -18 -11 -23 1 -30 17 -11 29 -11 48 1 12 7 12 12 -4
29 -24 26 -28 26 -45 0z"/>
<path d="M5089 5934 c-27 -11 -40 -25 -52 -56 l-16 -40 26 7 c14 3 38 9 54 12
27 5 29 9 29 49 0 24 -1 44 -2 43 -2 0 -19 -7 -39 -15z"/>
<path d="M5550 5837 c0 -42 1 -44 40 -57 56 -19 66 -6 41 53 -18 41 -24 47
-51 47 -29 0 -30 -2 -30 -43z"/>
<path d="M5420 5706 c0 -18 9 -30 32 -42 30 -15 32 -15 45 2 8 10 12 28 11 39
-2 16 -12 21 -45 23 -40 3 -43 1 -43 -22z"/>
<path d="M5330 5684 c-19 -8 -36 -16 -38 -18 -2 -3 4 -32 14 -65 14 -52 20
-61 40 -61 13 0 28 9 34 20 8 16 15 18 35 10 23 -9 25 -7 25 18 0 17 -14 42
-38 69 l-37 43 -35 -16z"/>
<path d="M5527 5658 l-28 -21 28 -18 c39 -26 43 -24 43 21 0 46 -4 47 -43 18z"/>
<path d="M5789 5634 c-7 -9 -13 -31 -13 -49 0 -18 6 -40 13 -49 19 -23 71 -20
97 5 22 20 22 24 8 50 -13 26 -59 59 -82 59 -5 0 -16 -7 -23 -16z"/>
<path d="M6372 5625 c-30 -25 -32 -30 -32 -97 0 -93 15 -140 64 -195 37 -42
140 -103 174 -103 7 0 26 29 42 64 l29 65 54 -30 c64 -34 160 -69 193 -69 32
0 88 72 79 102 -15 44 -147 162 -226 201 -81 40 -200 74 -289 84 -50 5 -59 3
-88 -22z"/>
<path d="M5497 5573 c-10 -10 -8 -52 3 -74 22 -40 90 -8 90 42 0 24 -76 50
-93 32z"/>
<path d="M6088 5547 l-36 -23 29 -16 c16 -10 29 -25 29 -35 0 -34 28 -60 90
-82 58 -22 61 -22 91 -4 24 15 29 22 24 42 -11 44 -43 77 -103 109 -71 38 -76
38 -124 9z"/>
<path d="M5340 5512 c-19 -16 -22 -24 -16 -55 4 -20 13 -43 21 -51 14 -14 112
-33 121 -23 12 12 -18 83 -48 114 -37 38 -47 40 -78 15z"/>
<path d="M7290 5514 c-59 -16 -80 -34 -80 -70 0 -13 -4 -26 -10 -29 -6 -3 0
-21 13 -41 17 -29 45 -47 134 -90 61 -30 114 -54 118 -54 17 0 215 181 215
196 -1 5 -28 30 -61 57 l-61 47 -106 -1 c-60 0 -131 -7 -162 -15z"/>
<path d="M5768 5495 c-10 -13 -18 -36 -18 -51 l0 -27 -23 21 c-18 17 -36 22
-81 22 -31 0 -62 -5 -69 -10 -7 -6 -22 -18 -35 -28 -20 -15 -22 -21 -12 -46
l11 -29 -41 7 c-37 6 -100 -13 -100 -30 0 -3 39 -55 86 -114 85 -107 86 -108
117 -99 18 5 33 9 34 9 2 0 9 14 16 31 l12 31 28 -22 c34 -27 110 -38 132 -20
11 9 15 32 15 79 0 57 -4 74 -30 114 -16 26 -26 47 -22 47 4 0 26 -11 49 -24
74 -43 105 -49 152 -30 59 24 55 61 -17 136 -36 38 -35 38 -157 52 -22 3 -34
-2 -47 -19z"/>
<path d="M7078 5483 c-29 -7 -21 -28 17 -46 33 -16 35 -16 50 6 14 20 14 23
-2 34 -17 13 -33 15 -65 6z"/>
<path d="M7661 5352 c-31 -25 -33 -31 -24 -58 14 -43 41 -41 98 9 l50 44 -32
17 c-43 22 -53 21 -92 -12z"/>
<path d="M5958 5275 c-58 -47 -58 -48 -58 -102 0 -74 26 -110 147 -197 54 -39
135 -100 180 -136 114 -91 273 -150 408 -150 68 0 70 1 112 42 l43 42 167 -24
166 -24 23 29 c13 16 31 44 40 61 17 32 17 32 -23 101 -50 84 -64 96 -133 118
-74 24 -127 51 -175 90 -91 73 -172 104 -191 73 -4 -7 -10 -27 -13 -45 l-6
-33 -125 61 c-214 105 -290 130 -405 136 l-100 5 -57 -47z"/>
<path d="M7031 5289 c-48 -19 -50 -25 -35 -92 12 -52 21 -69 59 -104 52 -48
126 -86 203 -106 69 -17 77 -26 62 -71 -10 -30 -16 -35 -48 -38 l-37 -3 -3
-57 c-2 -46 -7 -58 -22 -63 -41 -13 -17 -72 63 -152 37 -38 70 -63 83 -63 11
0 47 -9 79 -20 79 -27 200 -28 229 -1 16 14 53 22 145 34 122 15 125 16 194
64 67 46 71 51 90 113 15 52 17 71 8 100 -20 66 -8 63 -263 71 -283 9 -498 44
-393 63 72 14 111 84 60 108 -14 6 -36 30 -49 53 -41 70 -175 130 -381 170
-11 3 -31 0 -44 -6z"/>
<path d="M8167 5224 c-28 -19 -37 -30 -31 -42 9 -22 9 -42 0 -70 -7 -21 -5
-23 12 -18 18 6 20 3 16 -31 -3 -27 8 -78 39 -173 l44 -135 43 -7 c41 -7 47
-5 96 32 46 35 54 46 64 93 11 46 10 62 -4 104 -9 28 -32 68 -50 89 -33 38
-35 39 -117 44 l-84 5 52 27 c28 15 54 31 56 35 2 5 -2 23 -9 41 -12 28 -19
32 -52 32 -24 0 -51 -9 -75 -26z"/>
<path d="M7589 5174 c-7 -9 -13 -37 -13 -62 l-1 -47 76 -38 c42 -22 87 -39
100 -38 73 1 190 15 195 22 7 12 50 11 96 -3 36 -10 41 -9 61 11 l22 22 -36
32 c-20 18 -59 40 -87 50 -27 10 -60 29 -73 43 -26 27 -69 33 -69 8 0 -14 -9
-15 -62 -9 -35 3 -87 10 -117 16 -72 12 -76 12 -92 -7z"/>
<path d="M9024 5136 c-18 -14 -18 -16 -1 -33 16 -16 18 -16 33 -1 16 16 13 48
-4 48 -4 0 -17 -6 -28 -14z"/>
<path d="M8862 5078 c-19 -25 -52 -97 -52 -116 0 -10 6 -26 13 -35 11 -15 17
-13 65 25 47 36 52 45 52 79 0 28 -5 41 -19 49 -26 13 -46 13 -59 -2z"/>
<path d="M6020 4937 c0 -22 31 -57 51 -57 37 0 20 43 -24 59 -20 8 -27 7 -27
-2z"/>
<path d="M6959 4611 l-23 -18 46 -27 46 -27 36 22 c35 20 35 21 18 45 -22 30
-88 33 -123 5z"/>
<path d="M3236 8911 c-4 -6 -26 -16 -49 -22 -51 -15 -77 -36 -77 -61 0 -16 4
-18 23 -12 12 4 28 6 35 5 17 -3 60 -2 109 2 39 3 122 50 123 68 0 4 -19 10
-42 13 -24 4 -59 9 -79 12 -21 3 -39 1 -43 -5z"/>
<path d="M7037 7967 c-3 -8 -29 -21 -59 -29 l-53 -15 -3 -49 c-2 -42 1 -53 22
-73 23 -22 28 -23 57 -11 65 27 114 141 77 178 -16 16 -35 15 -41 -1z"/>
<path d="M7345 7510 l-28 -29 17 -46 c30 -77 86 -106 231 -120 66 -6 71 -5 94
19 13 14 21 31 18 39 -6 16 -159 71 -189 69 -10 0 -37 21 -59 49 -23 27 -45
49 -49 49 -3 0 -19 -13 -35 -30z"/>
<path d="M12720 14980 c-86 -11 -211 -70 -335 -157 -21 -15 -64 -43 -95 -61
-30 -19 -72 -51 -93 -73 -20 -21 -65 -57 -100 -80 -34 -24 -136 -117 -227
-209 -91 -91 -191 -186 -223 -210 -33 -24 -76 -69 -98 -101 -21 -31 -64 -86
-94 -121 -77 -87 -157 -209 -204 -309 -61 -133 -121 -318 -121 -376 0 -50 1
-52 58 -97 78 -63 183 -97 318 -103 91 -5 111 -3 187 22 47 15 116 45 154 67
37 22 98 55 136 74 72 37 84 58 40 75 -47 18 -113 5 -222 -45 -145 -65 -173
-70 -285 -50 -89 16 -139 34 -151 54 -3 5 1 75 10 154 15 139 17 149 63 238
26 51 55 112 65 135 21 49 266 343 325 391 23 18 56 54 73 80 18 26 48 63 69
82 20 19 39 40 41 46 2 6 51 42 109 81 58 39 138 98 178 132 74 62 251 185
307 213 82 42 152 31 238 -38 l57 -46 0 -101 c0 -95 -3 -109 -56 -271 -60
-182 -62 -195 -45 -240 10 -24 14 -26 27 -15 32 26 68 104 126 276 55 159 61
186 60 251 -1 51 5 91 19 132 19 55 19 61 4 84 -21 32 -45 47 -135 84 -92 38
-111 41 -180 32z"/>
<path d="M13302 13999 c-114 -14 -316 -89 -436 -160 -143 -84 -198 -123 -236
-164 -148 -160 -250 -260 -282 -276 -21 -11 -56 -44 -79 -77 -23 -31 -72 -88
-109 -127 -61 -63 -69 -76 -80 -130 -7 -33 -22 -85 -35 -115 -12 -30 -25 -75
-29 -100 -14 -97 52 -303 110 -349 38 -30 129 -61 178 -61 25 0 73 9 108 20
34 11 77 20 94 20 18 0 72 12 120 27 49 14 105 27 124 27 19 1 51 10 70 20 60
32 333 217 365 246 17 15 68 51 114 79 96 59 324 244 379 307 74 85 202 356
202 428 0 11 7 40 16 63 15 39 15 47 0 110 -21 84 -55 144 -103 180 -34 26
-44 28 -177 35 -175 8 -234 8 -314 -3z m188 -114 c23 -8 65 -15 92 -15 52 0
128 -31 128 -53 0 -7 15 -45 34 -84 l34 -71 -24 -59 c-13 -32 -24 -68 -24 -81
0 -13 -27 -53 -66 -97 -36 -42 -70 -88 -75 -103 -10 -29 -159 -153 -266 -221
-34 -22 -82 -60 -108 -86 -43 -42 -94 -80 -256 -190 -32 -22 -72 -59 -88 -82
-21 -29 -40 -43 -63 -48 -18 -4 -60 -19 -93 -32 -33 -14 -85 -30 -115 -35 -30
-5 -70 -12 -88 -15 -42 -7 -248 25 -285 44 l-29 14 4 102 3 102 74 135 c41 74
94 164 119 200 55 78 160 190 179 190 7 0 13 7 13 15 0 9 11 20 25 25 14 5 25
14 25 20 0 6 70 83 156 170 177 180 153 167 408 230 169 42 224 47 286 25z"/>
<path d="M14950 12934 c-19 -7 -52 -13 -73 -13 -47 -1 -175 -43 -232 -76 -90
-53 -185 -76 -411 -100 -118 -12 -161 -21 -289 -64 -82 -28 -167 -51 -190 -51
-43 0 -89 24 -203 105 -70 49 -92 49 -92 -1 0 -28 8 -40 58 -80 31 -25 58 -49
60 -53 3 -8 -97 -31 -213 -50 -33 -5 -85 -16 -115 -25 -30 -9 -82 -16 -117
-16 -103 0 -155 -16 -230 -72 -37 -27 -139 -97 -226 -155 -182 -121 -218 -161
-197 -213 7 -16 17 -30 23 -30 6 0 47 18 91 40 45 22 119 50 166 64 47 13 139
41 205 61 66 20 170 47 230 60 114 25 257 67 359 105 94 36 290 90 297 82 3
-4 34 -42 68 -85 l63 -78 -104 -108 c-97 -100 -132 -142 -265 -320 -26 -35
-67 -87 -90 -115 -24 -28 -85 -110 -137 -182 -51 -71 -117 -155 -145 -186 -28
-31 -51 -60 -51 -66 0 -11 71 -62 86 -62 5 0 32 30 59 67 55 73 129 156 217
242 31 31 74 82 95 113 37 56 239 288 278 319 11 9 40 42 65 73 25 31 48 56
52 56 13 0 57 -97 64 -142 10 -65 38 -98 81 -98 32 0 35 2 29 23 -4 12 -11 58
-15 102 -11 99 -19 130 -43 178 l-18 37 35 32 c55 48 110 88 230 168 61 41
144 99 185 130 41 31 136 94 210 139 74 46 158 101 187 122 l51 38 -16 51
c-17 54 -19 54 -72 34z m-520 -298 c0 -2 -51 -39 -112 -82 -62 -43 -141 -99
-175 -126 -35 -26 -71 -48 -81 -48 -10 0 -40 23 -67 50 -40 41 -48 54 -39 67
23 36 474 169 474 139z"/>
<path d="M15200 12205 c-14 -7 -40 -16 -58 -20 -52 -11 -290 -111 -334 -140
-39 -26 -182 -208 -200 -255 -5 -14 -7 -41 -4 -61 4 -23 0 -51 -10 -74 -8 -21
-24 -81 -35 -134 -38 -191 -74 -297 -162 -470 -12 -24 -49 -73 -82 -107 -33
-35 -86 -93 -119 -129 -74 -82 -164 -129 -281 -146 -94 -14 -168 -26 -212 -35
-53 -10 -95 10 -131 66 -74 113 -79 166 -28 268 46 89 118 190 205 284 50 54
71 84 71 102 0 23 -4 26 -37 26 -29 0 -45 -7 -68 -30 -55 -55 -96 -90 -105
-90 -19 0 -128 -132 -169 -204 l-44 -77 12 -117 c12 -111 15 -120 56 -182 55
-86 119 -130 186 -130 26 0 51 -4 54 -10 4 -6 61 -10 138 -10 249 0 342 41
447 195 27 39 82 107 124 153 45 49 90 111 111 151 60 119 105 238 105 277 0
20 15 71 35 114 19 43 35 83 35 90 0 23 77 176 132 260 48 75 68 95 164 167
103 77 155 102 216 103 9 0 26 -14 39 -31 20 -29 21 -33 6 -69 -8 -22 -54 -97
-101 -168 -79 -119 -100 -162 -77 -162 5 0 31 -20 59 -45 l50 -45 82 41 c66
34 83 48 95 76 8 19 24 46 35 60 11 14 29 58 41 97 33 110 15 238 -47 328 -50
72 -141 111 -194 83z"/>
<path d="M15570 11375 c-17 -24 -33 -35 -51 -35 -36 0 -52 -38 -39 -93 17 -70
33 -234 37 -378 l4 -135 -68 -65 c-76 -71 -194 -139 -243 -139 -18 0 -44 -6
-58 -13 -54 -27 -198 -71 -257 -78 -104 -13 -179 -28 -225 -44 -24 -9 -100
-22 -169 -30 -70 -8 -155 -26 -197 -40 -40 -14 -85 -25 -100 -25 -15 0 -62
-13 -103 -29 -42 -16 -97 -37 -122 -46 -25 -8 -74 -40 -109 -70 -46 -40 -90
-65 -169 -98 -58 -24 -124 -47 -145 -50 -55 -9 -71 -26 -55 -60 27 -59 102
-59 290 3 141 46 208 79 263 130 60 55 274 150 339 150 27 0 128 18 225 41
145 33 199 41 297 44 153 3 309 31 529 95 38 10 72 17 76 15 5 -3 1 -31 -7
-63 -10 -37 -13 -79 -10 -118 7 -76 74 -254 141 -376 43 -77 56 -94 78 -96 32
-4 44 23 30 71 -6 17 -13 61 -17 97 -3 36 -15 103 -26 150 -35 144 -39 203
-23 309 9 55 15 161 15 245 0 140 -1 152 -23 180 -19 26 -24 48 -29 136 -4 58
-10 146 -14 196 -7 87 -7 92 14 103 17 10 21 21 21 67 0 53 -1 55 -35 70 -19
7 -36 14 -37 14 -2 0 -14 -16 -28 -35z"/>
<path d="M14690 8512 c-96 -51 -139 -79 -177 -114 -30 -26 -52 -38 -73 -38
-16 0 -53 -9 -82 -20 -29 -11 -70 -20 -92 -20 -21 0 -55 -5 -76 -11 -48 -15
-183 17 -279 65 -106 54 -152 59 -279 35 -141 -27 -192 -49 -192 -83 0 -14 2
-26 4 -26 2 0 29 13 62 29 133 68 274 63 431 -14 l91 -45 127 0 c100 0 136 4
173 19 26 10 78 23 116 29 48 7 84 21 120 43 80 51 122 70 166 76 39 6 40 5
40 -25 0 -23 -10 -39 -41 -66 -39 -33 -82 -54 -235 -110 -81 -30 -154 -80
-154 -104 0 -10 9 -31 19 -49 l20 -32 -61 -18 -61 -18 -35 -103 -34 -103 38
-35 c55 -50 127 -81 214 -94 41 -6 100 -18 131 -26 47 -14 64 -14 105 -4 27 6
64 14 83 17 l34 6 -5 -61 c-7 -72 -36 -128 -83 -160 -18 -13 -73 -38 -122 -56
l-88 -33 -3 -58 c-3 -57 -2 -58 42 -101 26 -24 46 -45 46 -48 0 -12 -62 -41
-105 -48 -27 -5 -75 -13 -105 -19 -30 -5 -91 -14 -135 -18 -292 -31 -310 -35
-367 -89 -25 -23 -28 -33 -28 -89 0 -64 0 -64 82 -180 78 -111 81 -116 62
-131 -43 -33 -131 -65 -212 -78 -122 -18 -180 -40 -202 -76 -39 -64 -32 -197
15 -293 17 -36 25 -69 25 -104 0 -35 6 -62 18 -79 10 -15 24 -41 31 -59 7 -17
34 -51 59 -75 26 -25 61 -63 79 -85 18 -22 55 -51 85 -66 29 -14 69 -41 88
-59 l35 -33 -82 -3 -83 -3 0 -42 c0 -42 1 -43 133 -154 72 -62 157 -130 189
-152 31 -23 66 -56 77 -74 11 -18 29 -42 41 -52 23 -21 27 -77 6 -94 -9 -7
-86 -16 -198 -22 -173 -9 -326 -20 -568 -41 -220 -19 -356 -20 -390 -3 -27 14
-33 14 -52 0 -14 -9 -44 -15 -81 -15 -70 0 -100 -14 -155 -74 -42 -45 -51 -69
-32 -81 6 -3 10 -27 10 -52 l0 -46 -52 7 c-29 3 -89 9 -133 12 -81 7 -81 7
-106 -23 -14 -17 -40 -72 -58 -123 l-33 -92 5 -177 c4 -158 8 -187 36 -283 17
-58 41 -130 54 -160 41 -92 229 -308 268 -308 22 0 22 0 3 -21 -19 -21 -19
-22 55 -90 47 -44 91 -74 120 -85 67 -23 85 -35 172 -105 76 -62 79 -66 79
-106 l0 -43 -52 0 c-30 0 -123 19 -222 46 -172 46 -336 109 -605 232 -143 65
-148 66 -251 72 -58 4 -117 11 -132 18 -32 13 -44 10 -115 -32 -59 -34 -66
-55 -27 -81 25 -16 27 -16 77 15 l52 33 75 -12 c50 -8 81 -18 97 -32 13 -13
28 -19 39 -15 10 4 50 -11 103 -38 119 -61 699 -294 790 -317 41 -10 104 -19
141 -19 60 0 69 3 93 28 15 15 27 37 27 48 0 12 10 25 25 32 14 6 25 15 25 19
-1 22 -229 253 -311 315 -137 103 -270 220 -339 296 -72 79 -191 304 -215 404
-34 147 -10 411 45 489 29 40 52 43 165 24 53 -9 112 -14 131 -11 28 6 35 13
44 44 13 48 13 101 -1 141 -10 30 -9 35 13 57 36 37 108 45 453 56 429 12 480
13 565 0 251 -36 243 -35 331 -18 71 14 88 22 112 49 31 35 66 103 67 127 0
19 -139 157 -195 195 -21 14 -46 37 -55 50 -9 14 -52 46 -95 72 -47 28 -89 62
-103 83 l-23 35 65 3 66 3 0 40 c0 46 -9 56 -138 164 -171 142 -362 469 -362
618 0 83 18 109 94 135 33 11 86 24 116 28 137 16 250 76 250 131 0 37 -24 81
-81 147 -57 67 -89 124 -89 160 0 18 13 35 46 61 40 30 54 35 101 35 30 0 84
5 121 10 37 6 103 12 147 15 44 2 107 9 140 14 33 6 86 14 117 19 72 10 131
54 136 99 3 25 -1 32 -22 37 -14 3 -52 32 -86 63 l-61 56 103 41 c140 56 171
82 207 176 51 136 55 151 40 165 -25 23 -154 33 -229 18 -62 -13 -73 -12 -138
6 -85 23 -86 24 -150 82 l-51 47 47 12 c69 19 69 20 21 61 -36 32 -41 40 -29
49 8 5 25 10 37 10 12 0 34 11 50 24 25 21 26 26 15 50 -7 15 -12 43 -12 62 0
41 13 49 114 63 79 12 211 72 275 127 38 33 41 40 41 84 0 56 -32 104 -87 126
-41 18 -42 18 -83 -4z"/>
<path d="M14140 8205 c-14 -8 -32 -14 -40 -15 -9 0 -33 -9 -55 -20 -22 -11
-59 -20 -83 -20 -37 0 -43 -3 -38 -17 29 -101 37 -135 31 -141 -17 -17 -90 1
-190 47 -60 28 -117 51 -125 51 -8 0 -33 -11 -55 -25 l-40 -24 39 -1 c22 0 47
-7 57 -16 10 -9 32 -20 51 -24 18 -5 87 -31 153 -58 198 -83 290 -90 327 -26
22 38 11 83 -27 117 l-27 23 53 44 c78 65 80 69 49 100 -23 23 -45 25 -80 5z
m35 -25 c-10 -11 -51 -36 -91 -55 -67 -31 -74 -37 -74 -64 0 -23 8 -34 34 -50
33 -21 72 -68 63 -77 -2 -3 -21 -7 -40 -11 -33 -5 -35 -4 -30 16 4 15 -5 32
-31 61 -35 38 -43 69 -30 104 3 9 14 16 23 16 10 0 51 18 92 40 84 45 112 51
84 20z"/>
<path d="M14195 7489 c-141 -26 -143 -27 -150 -49 -6 -17 -15 -20 -76 -20 -55
0 -80 -5 -120 -26 l-51 -25 41 -44 c23 -25 41 -48 41 -53 0 -4 -46 -13 -102
-20 -144 -16 -191 -34 -259 -101 -57 -56 -57 -56 -69 -142 -11 -75 -11 -95 4
-163 17 -75 17 -77 -4 -120 -20 -43 -23 -44 -98 -63 -68 -17 -77 -22 -80 -43
-2 -14 -18 -37 -35 -52 l-32 -27 92 -1 c180 0 239 30 306 158 32 61 34 69 22
92 -25 44 -17 90 31 190 52 110 99 154 151 144 51 -10 293 25 330 47 39 24 75
66 92 107 11 26 10 35 -8 71 l-21 41 59 30 c33 16 67 40 75 52 15 21 15 23 -1
30 -24 9 -23 9 -138 -13z m-219 -106 c12 -39 23 -48 79 -65 82 -24 86 -33 19
-47 -89 -17 -95 -15 -153 43 l-53 54 28 16 c39 21 73 20 80 -1z m-188 -165
c-3 -7 -31 -22 -64 -33 -79 -27 -113 -53 -159 -120 -46 -66 -49 -111 -16 -215
31 -98 28 -121 -20 -165 -42 -38 -95 -65 -126 -65 -13 0 -9 6 14 21 18 11 42
37 54 56 21 33 22 46 20 194 -2 155 -2 159 24 203 29 50 70 74 189 112 85 27
89 27 84 12z"/>
<path d="M13135 5684 c-16 -7 -51 -13 -77 -14 l-48 0 0 -48 c0 -44 4 -52 50
-97 32 -31 50 -58 50 -73 0 -12 7 -36 15 -51 14 -28 14 -29 -27 -56 -48 -32
-79 -30 -181 9 -40 15 -88 26 -117 26 -26 0 -77 9 -112 20 -82 26 -170 26
-228 -1 -50 -22 -114 -80 -136 -121 l-14 -28 -162 -2 -162 -3 -21 -31 c-32
-47 -53 -220 -35 -283 23 -81 29 -133 30 -256 1 -66 5 -129 9 -140 14 -36 26
60 23 198 -2 99 1 134 13 157 15 28 14 30 -4 30 -22 0 -51 35 -51 61 0 9 9 19
20 22 17 4 20 14 20 62 0 48 3 58 20 62 15 4 17 9 10 23 -16 29 -12 35 26 49
29 10 45 11 80 1 38 -11 54 -10 135 11 80 21 93 27 106 54 25 49 53 74 110 95
69 26 95 25 255 -5 175 -32 212 -42 261 -65 57 -28 73 -25 125 18 25 20 49 40
54 43 10 6 -28 115 -48 139 -7 8 -32 36 -55 62 -23 26 -39 54 -36 61 7 18 142
15 222 -6 33 -8 92 -22 130 -32 155 -38 205 -57 205 -80 0 -14 -11 -26 -32
-37 -30 -14 -36 -13 -76 4 -23 11 -67 20 -97 21 -50 2 -57 -1 -94 -38 -56 -53
-56 -89 0 -158 22 -28 59 -62 81 -74 43 -25 67 -50 68 -70 0 -22 -140 -17
-200 7 -36 14 -75 20 -133 20 -52 1 -91 6 -107 15 -33 19 -55 18 -96 -1 -32
-15 -41 -15 -107 -1 -108 24 -263 39 -317 32 -30 -4 -64 -18 -89 -37 -40 -29
-41 -31 -41 -88 0 -56 -1 -58 -32 -69 -26 -9 -39 -7 -84 13 -93 43 -140 42
-189 -4 -19 -17 -19 -27 -13 -127 9 -137 21 -211 43 -253 19 -38 16 -54 -37
-192 -30 -79 -33 -83 -62 -72 -15 6 -14 10 4 41 21 35 19 78 -3 70 -6 -2 -23
-34 -38 -71 -41 -100 -48 -106 -136 -106 -63 0 -82 4 -121 27 -31 18 -68 30
-107 34 -130 13 -223 51 -412 169 -98 61 -179 106 -181 101 -8 -23 23 -51 130
-116 62 -38 141 -88 175 -112 71 -51 143 -78 234 -88 41 -5 88 -19 130 -41
123 -61 267 -82 347 -48 44 18 97 67 119 109 27 51 21 255 -10 390 -14 61 -27
139 -29 174 -3 62 -2 64 25 73 23 8 35 5 76 -21 42 -28 56 -31 123 -31 68 0
76 2 101 28 25 26 27 35 27 105 l0 77 72 0 c39 0 164 -7 277 -16 113 -9 232
-14 264 -11 42 4 78 -1 130 -16 56 -16 101 -21 202 -21 l130 -1 3 43 c3 38 -2
48 -50 107 -34 42 -58 63 -68 60 -10 -3 -31 11 -53 33 -35 36 -37 41 -26 66
12 26 15 27 63 21 28 -4 73 -13 99 -22 60 -19 129 -5 176 35 l31 27 -23 55
c-20 49 -28 58 -82 87 -80 42 -176 73 -229 73 -24 0 -56 4 -72 9 -54 17 -109
19 -139 5z"/>
<path d="M3722 5572 c-19 -10 -41 -30 -50 -45 -16 -26 -16 -31 7 -90 49 -130
48 -139 -15 -289 -30 -73 -102 -230 -159 -348 -57 -118 -133 -285 -170 -370
-37 -85 -74 -164 -81 -175 -7 -11 -34 -72 -59 -135 -25 -63 -90 -198 -144
-300 -54 -102 -121 -228 -148 -280 -32 -60 -57 -96 -70 -100 -10 -3 -37 -19
-58 -37 -36 -30 -38 -34 -23 -50 12 -14 15 -33 11 -80 l-4 -63 28 0 c15 0 48
9 72 20 24 11 47 20 52 20 4 0 49 -26 98 -57 50 -32 119 -74 153 -93 35 -19
94 -68 134 -109 66 -67 74 -73 102 -66 17 3 36 13 43 21 14 18 227 20 295 3
42 -11 47 -10 72 14 15 13 38 28 52 32 69 18 182 70 191 86 8 16 5 21 -18 30
-56 21 -82 20 -174 -5 -149 -40 -212 -47 -260 -30 -23 7 -55 14 -72 14 -29 0
-182 76 -264 132 -65 44 -251 138 -273 138 -28 0 -25 12 11 46 56 53 126 170
239 401 61 125 143 285 182 356 l70 127 56 0 c50 0 60 -4 92 -34 55 -53 176
-100 285 -110 22 -2 94 -21 160 -42 66 -21 136 -38 155 -38 33 -1 35 1 38 36
3 32 -1 39 -27 52 -16 9 -47 16 -67 16 -27 0 -46 8 -74 33 -22 21 -52 36 -76
40 -21 4 -105 31 -186 61 -127 46 -156 61 -208 106 -33 29 -60 55 -60 60 0 4
23 56 51 115 59 124 161 384 209 528 17 53 35 97 38 97 4 0 69 -13 145 -30
176 -37 230 -66 356 -187 107 -103 176 -145 311 -188 60 -19 109 -28 165 -29
l80 -1 3 31 c4 39 -24 59 -100 75 -81 16 -103 27 -137 70 -19 24 -78 67 -149
109 -157 95 -326 211 -383 265 -25 24 -74 57 -107 74 -34 17 -106 67 -161 111
-106 85 -124 92 -179 62z"/>
<path d="M3256 5273 c-5 -25 3 -36 67 -96 147 -140 207 -190 207 -172 0 29
-21 57 -104 140 -45 45 -95 98 -112 118 -37 44 -50 46 -58 10z"/>
<path d="M5816 4481 c-3 -23 0 -66 9 -103 22 -93 20 -309 -5 -449 -11 -63 -20
-136 -20 -162 0 -27 -5 -57 -10 -67 -18 -34 -60 -247 -72 -369 -12 -129 -17
-137 -66 -120 -20 7 -39 6 -69 -5 -24 -8 -44 -11 -50 -5 -16 16 -68 -6 -71
-30 -5 -35 23 -58 80 -65 28 -4 68 -17 89 -29 36 -20 39 -25 39 -67 0 -95 -22
-364 -31 -381 -5 -10 -11 -50 -13 -88 -2 -38 -7 -75 -11 -81 -4 -7 -2 -29 5
-49 11 -34 7 -56 -38 -237 -27 -109 -57 -246 -67 -304 -9 -58 -21 -121 -26
-141 -5 -20 -9 -55 -9 -77 0 -90 -18 -136 -96 -238 -66 -88 -97 -154 -81 -170
12 -13 80 20 122 58 59 54 122 136 137 179 6 19 26 51 44 71 47 53 67 97 113
246 65 213 70 267 45 552 -10 107 13 334 47 475 30 120 47 175 56 175 3 0 22
-13 42 -29 84 -66 173 -95 351 -116 69 -8 145 -18 170 -21 25 -3 88 2 140 10
52 9 111 16 131 16 24 0 42 7 57 23 l22 23 -28 27 c-21 20 -46 29 -116 42 -49
8 -116 15 -148 15 -34 0 -95 10 -142 24 -44 13 -103 27 -131 31 -27 4 -95 24
-150 45 -55 21 -115 41 -133 45 -18 4 -36 13 -39 21 -8 21 63 320 103 434 119
344 153 419 210 469 34 30 40 32 88 26 91 -11 163 -41 309 -128 l69 -40 161
12 c206 15 467 -5 467 -35 0 -16 16 -19 24 -5 4 5 18 5 35 -2 26 -9 33 -7 69
22 29 22 39 37 35 49 -11 30 -35 51 -72 62 -20 6 -53 16 -73 22 -22 6 -38 18
-38 26 0 8 -12 31 -26 50 l-27 34 -69 -4 c-39 -3 -86 -1 -106 4 -35 8 -67 13
-267 37 -112 14 -507 104 -640 146 -145 46 -182 68 -214 130 -24 46 -29 50
-67 53 -41 3 -41 3 -48 -37z"/>
<path d="M10210 4491 c-14 -8 -77 -11 -263 -11 -23 0 -48 -8 -63 -19 -30 -23
-122 -55 -219 -75 -167 -34 -227 -76 -191 -131 17 -26 20 -26 94 -22 42 3 92
8 110 12 47 11 182 -48 182 -79 0 -23 53 -188 70 -218 6 -10 10 -44 10 -75 0
-32 7 -97 16 -144 24 -122 20 -129 -70 -157 -42 -12 -96 -25 -120 -28 -29 -4
-53 -15 -68 -31 l-23 -25 45 7 c25 4 88 20 140 36 52 16 100 29 106 29 16 0
36 -111 35 -190 -1 -64 13 -146 31 -185 8 -18 12 -122 8 -200 -3 -54 21 -219
36 -247 10 -19 14 -61 14 -150 0 -82 5 -142 16 -178 8 -30 19 -98 24 -150 4
-52 14 -129 21 -170 14 -89 6 -165 -19 -176 -9 -4 -55 -14 -102 -23 l-85 -16
0 -40 0 -40 117 -3 c141 -3 204 10 349 71 57 25 140 52 184 60 90 18 191 66
280 132 84 62 217 215 261 299 21 39 55 97 75 129 21 32 41 72 44 90 4 18 22
57 41 87 37 61 112 279 140 408 15 70 16 91 6 129 -10 34 -10 54 -1 84 24 77
-37 312 -97 378 -18 21 -45 63 -59 94 -15 32 -34 59 -46 62 -11 4 -31 25 -46
48 -34 56 -70 94 -183 192 -52 45 -142 127 -201 182 -86 82 -113 102 -152 111
-64 17 -143 52 -213 97 -35 23 -73 39 -94 40 -19 1 -55 5 -80 9 -25 3 -52 2
-60 -3z m115 -301 c32 -11 76 -20 97 -20 21 0 60 -11 86 -24 26 -13 97 -41
157 -62 102 -36 116 -44 195 -115 195 -175 325 -327 335 -391 4 -24 18 -79 32
-123 l25 -80 -12 -220 c-8 -139 -18 -233 -27 -255 -8 -19 -25 -75 -39 -125
-14 -49 -36 -104 -49 -121 -13 -17 -35 -58 -49 -92 -16 -40 -47 -86 -87 -131
-35 -38 -79 -100 -100 -138 -36 -67 -38 -69 -175 -154 -77 -47 -144 -84 -149
-82 -6 2 -30 -3 -54 -12 -24 -8 -63 -15 -87 -15 -42 0 -43 1 -68 53 -15 33
-29 88 -36 142 -6 49 -14 93 -18 99 -3 6 -9 31 -13 56 -3 25 -11 65 -17 90
-44 185 -64 330 -92 690 -6 69 -13 152 -16 184 -3 33 -1 85 6 116 10 47 9 70
-5 146 -11 53 -17 127 -16 184 1 74 -4 119 -25 206 l-27 111 23 33 c29 41 77
70 116 70 17 0 57 -9 89 -20z"/>
<path d="M8792 4161 c-30 -15 -104 -110 -139 -176 -9 -16 -28 -74 -43 -127
-18 -63 -45 -129 -78 -185 -79 -137 -205 -401 -234 -489 -51 -153 -61 -226
-61 -409 1 -177 9 -230 58 -410 13 -49 36 -139 51 -200 14 -60 37 -128 49
-150 13 -22 33 -66 45 -98 14 -36 33 -66 51 -80 17 -12 39 -36 50 -54 17 -28
34 -37 117 -64 89 -28 105 -31 197 -26 76 3 117 11 169 31 37 14 79 26 93 26
57 0 90 27 179 145 126 165 142 192 150 244 4 25 15 57 25 69 26 34 66 171
105 362 18 91 38 183 44 205 5 22 10 119 10 216 0 145 -3 179 -15 189 -27 22
-45 109 -45 215 0 89 -2 104 -20 120 -11 10 -20 28 -20 39 0 12 -11 56 -25 99
-14 43 -25 88 -25 100 0 33 -39 89 -98 142 -29 26 -59 60 -68 76 -8 17 -26 31
-42 35 -15 4 -53 20 -86 36 -32 16 -89 38 -125 47 -36 10 -105 34 -152 53 -83
34 -87 35 -117 19z m262 -272 c85 -31 145 -79 157 -122 6 -24 19 -42 35 -49
13 -6 24 -17 24 -25 0 -7 11 -19 25 -25 14 -6 25 -18 25 -27 0 -8 11 -31 25
-51 33 -48 52 -198 56 -433 2 -93 7 -171 11 -173 5 -3 5 -11 1 -17 -4 -7 -9
-45 -10 -86 -3 -75 -19 -115 -139 -354 -10 -21 -14 -69 -14 -181 l0 -152 -46
-74 c-80 -131 -144 -184 -251 -210 l-53 -12 -114 86 c-76 57 -130 106 -161
148 -50 67 -159 274 -151 287 3 4 -1 52 -9 106 -8 59 -10 106 -5 115 5 9 7 26
4 37 -3 11 0 55 6 99 6 43 15 111 20 151 5 40 23 112 39 160 16 48 50 156 76
238 26 83 61 177 79 210 63 117 167 279 206 321 22 24 40 48 40 54 0 14 58 4
124 -21z"/>
<path d="M7708 4136 c-26 -18 -71 -55 -101 -83 -29 -28 -67 -58 -83 -66 -17
-9 -43 -35 -59 -59 -15 -24 -47 -62 -71 -85 -25 -24 -63 -80 -88 -130 -25 -48
-52 -99 -59 -113 -8 -14 -22 -41 -31 -60 -9 -19 -30 -60 -47 -90 -40 -70 -98
-231 -117 -325 -5 -27 -28 -121 -51 -208 -33 -128 -41 -176 -41 -247 0 -49 -5
-101 -12 -115 -9 -21 -9 -31 0 -46 7 -10 12 -50 12 -88 0 -69 38 -215 79 -306
61 -134 75 -156 109 -183 53 -42 116 -72 150 -72 16 0 45 -6 63 -14 24 -10 41
-11 59 -4 14 5 48 11 76 12 100 5 247 98 306 195 28 44 129 260 169 359 17 43
29 91 29 118 0 25 7 58 15 74 17 33 65 301 65 363 0 23 5 58 10 77 6 19 15 71
20 115 5 44 14 98 21 120 11 38 12 39 20 16 7 -19 14 -22 32 -16 12 4 41 10
65 12 46 5 47 6 32 34 -9 16 -22 19 -80 19 l-68 0 -4 218 -3 217 -40 130 c-35
117 -44 134 -82 172 -60 58 -135 93 -197 92 -41 0 -61 -7 -98 -33z m190 -141
c20 -17 42 -55 66 -118 l36 -93 0 -178 c0 -140 -4 -199 -21 -279 -11 -55 -24
-108 -29 -118 -6 -10 -16 -57 -24 -106 -8 -48 -20 -108 -25 -133 -6 -25 -23
-116 -37 -203 -29 -182 -57 -276 -120 -402 -71 -142 -99 -179 -179 -239 -103
-77 -114 -76 -207 22 -40 43 -90 103 -111 134 -54 78 -108 227 -112 310 -2 36
-8 76 -15 87 -7 15 -8 27 0 40 5 11 10 54 10 96 0 50 5 87 16 106 8 17 22 63
30 102 9 40 35 122 60 184 24 62 44 122 44 134 0 11 9 33 20 49 10 15 40 71
65 125 54 118 168 279 233 331 26 21 71 60 99 86 52 48 121 87 155 88 9 0 30
-11 46 -25z"/>
<path d="M5360 3837 c0 -12 99 -67 121 -67 6 0 30 -13 53 -30 53 -36 194 -93
213 -86 7 3 13 10 13 16 0 17 -353 180 -390 180 -6 0 -10 -6 -10 -13z"/>
</g>
</svg>
